{
    "repository": "slhck/ffmpeg-quality-metrics",
    "stars": 275,
    "language": "python",
    "size": 613,
    "clone_url": "https://github.com/slhck/ffmpeg-quality-metrics.git",
    "timestamp": "2023-06-28T13:46:50.162049Z",
    "clone_success": true,
    "number_of_actions": 1,
    "number_of_test_actions": 1,
    "actions_successful": true,
    "actions_build_tools": [
        "pytest"
    ],
    "actions_test_build_tools": [
        "pytest"
    ],
    "actions_run": {
        "failed": false,
        "tests": [
            {
                "classname": "test.test.TestMetrics",
                "name": "test_all",
                "time": 0.81,
                "results": [
                    {
                        "result": "Failure",
                        "message": "assert 0.05000000000006821 < 0.02\n +  where 0.05000000000006821 = abs((536.66 - 536.71))",
                        "type": null
                    }
                ],
                "stdout": null,
                "stderr": null
            },
            {
                "classname": "test.test.TestMetrics",
                "name": "test_ssim",
                "time": 0.167,
                "results": [
                    {
                        "result": "Passed",
                        "message": "",
                        "type": ""
                    }
                ],
                "stdout": null,
                "stderr": null
            },
            {
                "classname": "test.test.TestMetrics",
                "name": "test_psnr",
                "time": 0.22,
                "results": [
                    {
                        "result": "Failure",
                        "message": "assert 0.05000000000006821 < 0.02\n +  where 0.05000000000006821 = abs((536.66 - 536.71))",
                        "type": null
                    }
                ],
                "stdout": null,
                "stderr": null
            },
            {
                "classname": "test.test.TestMetrics",
                "name": "test_vmaf",
                "time": 0.546,
                "results": [
                    {
                        "result": "Passed",
                        "message": "",
                        "type": ""
                    }
                ],
                "stdout": null,
                "stderr": null
            },
            {
                "classname": "test.test.TestMetrics",
                "name": "test_vmaf_features",
                "time": 4.828,
                "results": [
                    {
                        "result": "Failure",
                        "message": "RuntimeError: error running command: ffmpeg -nostdin -nostats -y -threads 0 -r 25.0 -i /tmp/ad9c0f7e-1596-11ee-8a50-bb14de238602/slhck-ffmpeg-quality-metrics/test/ref-1280x720.mkv -r 25.0 -i /tmp/ad9c0f7e-1596-11ee-8a50-bb14de238602/slhck-ffmpeg-quality-metrics/test/dist-854x480.mkv -filter_complex '[1][0]scale2ref=flags=bicubic[dist][ref];[dist]settb=AVTB,setpts=PTS-STARTPTS[distpts];[ref]settb=AVTB,setpts=PTS-STARTPTS[refpts];[distpts][refpts]libvmaf='\"'\"'model=path=/tmp/ad9c0f7e-1596-11ee-8a50-bb14de238602/slhck-ffmpeg-quality-metrics/ffmpeg_quality_metrics/vmaf_models/vmaf_v0.6.1.json:log_path=/tmp/ffmpeg_quality_metrics_libvmaf_ref-1280x720.mkv_dist-854x480.mkv.json:log_fmt=json:n_threads=0:n_subsample=1:feature=name=cambi|name=ciede|name=vif|name=adm|name=motion|name=float_ssim|name=float_ms_ssim'\"'\"'' -an -f null /dev/null\n\nffmpeg version 6.0-static https://johnvansickle.com/ffmpeg/  Copyright (c) 2000-2023 the FFmpeg developers\n  built with gcc 8 (Debian 8.3.0-6)\n  configuration: --enable-gpl --enable-version3 --enable-static --disable-debug --disable-ffplay --disable-indev=sndio --disable-outdev=sndio --cc=gcc --enable-fontconfig --enable-frei0r --enable-gnutls --enable-gmp --enable-libgme --enable-gray --enable-libaom --enable-libfribidi --enable-libass --enable-libvmaf --enable-libfreetype --enable-libmp3lame --enable-libopencore-amrnb --enable-libopencore-amrwb --enable-libopenjpeg --enable-librubberband --enable-libsoxr --enable-libspeex --enable-libsrt --enable-libvorbis --enable-libopus --enable-libtheora --enable-libvidstab --enable-libvo-amrwbenc --enable-libvpx --enable-libwebp --enable-libx264 --enable-libx265 --enable-libxml2 --enable-libdav1d --enable-libxvid --enable-libzvbi --enable-libzimg\n  libavutil      58.  2.100 / 58.  2.100\n  libavcodec     60.  3.100 / 60.  3.100\n  libavformat    60.  3.100 / 60.  3.100\n  libavdevice    60.  1.100 / 60.  1.100\n  libavfilter     9.  3.100 /  9.  3.100\n  libswscale      7.  1.100 /  7.  1.100\n  libswresample   4. 10.100 /  4. 10.100\n  libpostproc    57.  1.100 / 57.  1.100\nInput #0, matroska,webm, from '/tmp/ad9c0f7e-1596-11ee-8a50-bb14de238602/slhck-ffmpeg-quality-metrics/test/ref-1280x720.mkv':\n  Metadata:\n    ENCODER         : Lavf58.20.100\n  Duration: 00:00:00.12, bitrate: 526 kb/s\n  Stream #0:0: Video: h264 (High 4:4:4 Predictive), yuv444p(progressive), 1280x720 [SAR 1:1 DAR 16:9], 25 fps, 25 tbr, 1k tbn (default)\n    Metadata:\n      ENCODER         : Lavc58.35.100 libx264\n      DURATION        : 00:00:00.120000000\nInput #1, matroska,webm, from '/tmp/ad9c0f7e-1596-11ee-8a50-bb14de238602/slhck-ffmpeg-quality-metrics/test/dist-854x480.mkv':\n  Metadata:\n    ENCODER         : Lavf58.20.100\n  Duration: 00:00:00.12, bitrate: 444 kb/s\n  Stream #1:0: Video: h264 (High 4:4:4 Predictive), yuv444p(progressive), 854x480 [SAR 1:1 DAR 427:240], 25 fps, 25 tbr, 1k tbn (default)\n    Metadata:\n      ENCODER         : Lavc58.35.100 libx264\n      DURATION        : 00:00:00.120000000\nStream mapping:\n  Stream #0:0 (h264) -> scale2ref\n  Stream #1:0 (h264) -> scale2ref\n  libvmaf:default -> Stream #0:0 (wrapped_avframe)\nOutput #0, null, to '/dev/null':\n  Metadata:\n    encoder         : Lavf60.3.100\n  Stream #0:0: Video: wrapped_avframe, yuv444p(tv, progressive), 1280x720 [SAR 1281:1280 DAR 427:240], q=2-31, 200 kb/s, 25 fps, 25 tbn\n    Metadata:\n      encoder         : Lavc60.3.100 wrapped_avframe\nframe=    3 fps=0.7 q=-0.0 Lsize=N/A time=00:00:00.08 bitrate=N/A speed=0.0179x    \nvideo:1kB audio:0kB subtitle:0kB other streams:0kB global headers:0kB muxing overhead: unknown\n[Parsed_libvmaf_5 @ 0x863eec0] VMAF score: 14.258492\ncorrupted double-linked list",
                        "type": null
                    }
                ],
                "stdout": null,
                "stderr": null
            },
            {
                "classname": "test.test.TestMetrics",
                "name": "test_vmaf_feature_options",
                "time": 1.359,
                "results": [
                    {
                        "result": "Failure",
                        "message": "AssertionError: assert ['integer_adm...motion2', ...] == ['integer_adm...motion2', ...]\n  At index 12 diff: 'vmaf' != 'cambi_source'\n  Right contains 2 more items, first extra item: 'vmaf'\n  Full diff:\n    [\n     'integer_adm2',\n     'integer_adm_scale0',\n     'integer_adm_scale1',\n     'integer_adm_scale2',\n     'integer_adm_scale3',\n     'integer_motion2',\n     'integer_motion',\n     'integer_vif_scale0',\n     'integer_vif_scale1',\n     'integer_vif_scale2',\n     'integer_vif_scale3',\n     'cambi',\n  -  'cambi_source',\n  -  'cambi_full_reference',\n     'vmaf',\n     'n',\n    ]",
                        "type": null
                    }
                ],
                "stdout": null,
                "stderr": null
            },
            {
                "classname": "test.test.TestMetrics",
                "name": "test_vif",
                "time": 0.381,
                "results": [
                    {
                        "result": "Passed",
                        "message": "",
                        "type": ""
                    }
                ],
                "stdout": null,
                "stderr": null
            },
            {
                "classname": "test.test.TestMetrics",
                "name": "test_global",
                "time": 1.622,
                "results": [
                    {
                        "result": "Failure",
                        "message": "assert 0.05299999999999727 < 0.02\n +  where 0.05299999999999727 = abs((535.627 - 535.68))",
                        "type": null
                    }
                ],
                "stdout": null,
                "stderr": null
            }
        ],
        "stdout": "[0583c866-8694-46fa-9071-51a081a10c2c/build] \ud83d\ude80  Start image=crawlergpt:latest\n[0583c866-8694-46fa-9071-51a081a10c2c/build]   \ud83d\udc33  docker pull image=crawlergpt:latest platform= username= forcePull=false\n[0583c866-8694-46fa-9071-51a081a10c2c/build]   \ud83d\udc33  docker create image=crawlergpt:latest platform= entrypoint=[\"tail\" \"-f\" \"/dev/null\"] cmd=[]\n[0583c866-8694-46fa-9071-51a081a10c2c/build]   \ud83d\udc33  docker run image=crawlergpt:latest platform= entrypoint=[\"tail\" \"-f\" \"/dev/null\"] cmd=[]\n[0583c866-8694-46fa-9071-51a081a10c2c/build]   \ud83d\udc33  docker exec cmd=[chown -R 1012:1013 /tmp/ad9c0f7e-1596-11ee-8a50-bb14de238602/slhck-ffmpeg-quality-metrics] user=0 workdir=\n[0583c866-8694-46fa-9071-51a081a10c2c/build]   \u2601  git clone 'https://github.com/actions/setup-python' # ref=v4\n[0583c866-8694-46fa-9071-51a081a10c2c/build]   \u2601  git clone 'https://github.com/actions/cache' # ref=v3\n[0583c866-8694-46fa-9071-51a081a10c2c/build] \ud83e\uddea  Matrix: map[python-version:3.8]\n[0583c866-8694-46fa-9071-51a081a10c2c/build] \u2b50 Run Main actions/checkout@v3\n[0583c866-8694-46fa-9071-51a081a10c2c/build]   \u2705  Success - Main actions/checkout@v3\n[0583c866-8694-46fa-9071-51a081a10c2c/build] \u2b50 Run Main Set up Python 3.8\n[0583c866-8694-46fa-9071-51a081a10c2c/build]   \ud83d\udc33  docker cp src=/tmp/act-cache/6321a726-c7e4-4697-b544-1e64881aaba2/act/actions-setup-python@v4/ dst=/var/run/act/actions/actions-setup-python@v4/\n[0583c866-8694-46fa-9071-51a081a10c2c/build]   \ud83d\udc33  docker exec cmd=[chown -R 1012:1013 /var/run/act/actions/actions-setup-python@v4/] user=0 workdir=\n[0583c866-8694-46fa-9071-51a081a10c2c/build]   \ud83d\udc33  docker exec cmd=[node /var/run/act/actions/actions-setup-python@v4/dist/setup/index.js] user= workdir=\n[0583c866-8694-46fa-9071-51a081a10c2c/build]   \ud83d\udcac  ::debug::Python is expected to be installed into /opt/hostedtoolcache\n[0583c866-8694-46fa-9071-51a081a10c2c/build]   \u2753  ::group::Installed versions\n[0583c866-8694-46fa-9071-51a081a10c2c/build]   \ud83d\udcac  ::debug::Semantic version spec of 3.8 is 3.8\n[0583c866-8694-46fa-9071-51a081a10c2c/build]   \ud83d\udcac  ::debug::isExplicit: \n[0583c866-8694-46fa-9071-51a081a10c2c/build]   \ud83d\udcac  ::debug::explicit? false\n[0583c866-8694-46fa-9071-51a081a10c2c/build]   \ud83d\udcac  ::debug::isExplicit: 2.7.18\n[0583c866-8694-46fa-9071-51a081a10c2c/build]   \ud83d\udcac  ::debug::explicit? true\n[0583c866-8694-46fa-9071-51a081a10c2c/build]   \ud83d\udcac  ::debug::isExplicit: 3.5.10\n[0583c866-8694-46fa-9071-51a081a10c2c/build]   \ud83d\udcac  ::debug::explicit? true\n[0583c866-8694-46fa-9071-51a081a10c2c/build]   \ud83d\udcac  ::debug::isExplicit: 3.6.14\n[0583c866-8694-46fa-9071-51a081a10c2c/build]   \ud83d\udcac  ::debug::explicit? true\n[0583c866-8694-46fa-9071-51a081a10c2c/build]   \ud83d\udcac  ::debug::isExplicit: 3.7.11\n[0583c866-8694-46fa-9071-51a081a10c2c/build]   \ud83d\udcac  ::debug::explicit? true\n[0583c866-8694-46fa-9071-51a081a10c2c/build]   \ud83d\udcac  ::debug::isExplicit: 3.8.11\n[0583c866-8694-46fa-9071-51a081a10c2c/build]   \ud83d\udcac  ::debug::explicit? true\n[0583c866-8694-46fa-9071-51a081a10c2c/build]   \ud83d\udcac  ::debug::isExplicit: 3.9.6\n[0583c866-8694-46fa-9071-51a081a10c2c/build]   \ud83d\udcac  ::debug::explicit? true\n[0583c866-8694-46fa-9071-51a081a10c2c/build]   \ud83d\udcac  ::debug::evaluating 6 versions\n[0583c866-8694-46fa-9071-51a081a10c2c/build]   \ud83d\udcac  ::debug::matched: 3.8.11\n[0583c866-8694-46fa-9071-51a081a10c2c/build]   \ud83d\udcac  ::debug::checking cache: /opt/hostedtoolcache/Python/3.8.11/x64\n[0583c866-8694-46fa-9071-51a081a10c2c/build]   \ud83d\udcac  ::debug::Found tool in cache Python 3.8.11 x64\n[0583c866-8694-46fa-9071-51a081a10c2c/build]   | Successfully set up CPython (3.8.11)\n[0583c866-8694-46fa-9071-51a081a10c2c/build]   \u2753  ::endgroup::\n[0583c866-8694-46fa-9071-51a081a10c2c/build]   \u2753 add-matcher /run/act/actions/actions-setup-python@v4/.github/python.json\n[0583c866-8694-46fa-9071-51a081a10c2c/build]   \u2705  Success - Main Set up Python 3.8\n[0583c866-8694-46fa-9071-51a081a10c2c/build]   \u2699  ::set-env:: pythonLocation=/opt/hostedtoolcache/Python/3.8.11/x64\n[0583c866-8694-46fa-9071-51a081a10c2c/build]   \u2699  ::set-env:: PKG_CONFIG_PATH=/opt/hostedtoolcache/Python/3.8.11/x64/lib/pkgconfig\n[0583c866-8694-46fa-9071-51a081a10c2c/build]   \u2699  ::set-env:: Python_ROOT_DIR=/opt/hostedtoolcache/Python/3.8.11/x64\n[0583c866-8694-46fa-9071-51a081a10c2c/build]   \u2699  ::set-env:: Python2_ROOT_DIR=/opt/hostedtoolcache/Python/3.8.11/x64\n[0583c866-8694-46fa-9071-51a081a10c2c/build]   \u2699  ::set-env:: Python3_ROOT_DIR=/opt/hostedtoolcache/Python/3.8.11/x64\n[0583c866-8694-46fa-9071-51a081a10c2c/build]   \u2699  ::set-env:: LD_LIBRARY_PATH=/opt/hostedtoolcache/Python/3.8.11/x64/lib\n[0583c866-8694-46fa-9071-51a081a10c2c/build]   \u2699  ::set-output:: python-version=3.8.11\n[0583c866-8694-46fa-9071-51a081a10c2c/build]   \u2699  ::set-output:: python-path=/opt/hostedtoolcache/Python/3.8.11/x64/bin/python\n[0583c866-8694-46fa-9071-51a081a10c2c/build]   \u2699  ::add-path:: /opt/hostedtoolcache/Python/3.8.11/x64\n[0583c866-8694-46fa-9071-51a081a10c2c/build]   \u2699  ::add-path:: /opt/hostedtoolcache/Python/3.8.11/x64/bin\n[0583c866-8694-46fa-9071-51a081a10c2c/build] \u2b50 Run Main Cache ffmpeg download\n[0583c866-8694-46fa-9071-51a081a10c2c/build]   \ud83d\udc33  docker cp src=/tmp/act-cache/6321a726-c7e4-4697-b544-1e64881aaba2/act/actions-cache@v3/ dst=/var/run/act/actions/actions-cache@v3/\n[0583c866-8694-46fa-9071-51a081a10c2c/build]   \ud83d\udc33  docker exec cmd=[chown -R 1012:1013 /var/run/act/actions/actions-cache@v3/] user=0 workdir=\n[0583c866-8694-46fa-9071-51a081a10c2c/build]   \ud83d\udc33  docker exec cmd=[node /var/run/act/actions/actions-cache@v3/dist/restore/index.js] user= workdir=\n[0583c866-8694-46fa-9071-51a081a10c2c/build]   \ud83d\udcac  ::debug::Resolved Keys:\n[0583c866-8694-46fa-9071-51a081a10c2c/build]   \ud83d\udcac  ::debug::[\"Linux-ffmpeg\"]\n[0583c866-8694-46fa-9071-51a081a10c2c/build]   \ud83d\udcac  ::debug::Checking zstd --quiet --version\n[0583c866-8694-46fa-9071-51a081a10c2c/build]   \ud83d\udcac  ::debug::1.5.0\n[0583c866-8694-46fa-9071-51a081a10c2c/build]   \ud83d\udcac  ::debug::zstd version: 1.5.0\n[0583c866-8694-46fa-9071-51a081a10c2c/build]   \ud83d\udcac  ::debug::Resource Url: http://130.242.72.40:43995/_apis/artifactcache/cache?keys=Linux-ffmpeg&version=64bc562066b3d4aac0f55c3e7e6590a4b5290d538f18bf11ab9a0553845ad013\n[0583c866-8694-46fa-9071-51a081a10c2c/build]   \ud83d\udcac  ::debug::Failed to delete archive: Error: ENOENT: no such file or directory, unlink ''\n[0583c866-8694-46fa-9071-51a081a10c2c/build]   | Cache not found for input keys: Linux-ffmpeg\n[0583c866-8694-46fa-9071-51a081a10c2c/build]   \u2705  Success - Main Cache ffmpeg download\n[0583c866-8694-46fa-9071-51a081a10c2c/build] \u2b50 Run Main Download ffmpeg if not cached\n[0583c866-8694-46fa-9071-51a081a10c2c/build]   \ud83d\udc33  docker exec cmd=[bash --noprofile --norc -e -o pipefail /var/run/act/workflow/3] user= workdir=\n[0583c866-8694-46fa-9071-51a081a10c2c/build]   | ffmpeg-6.0-amd64-static/GPLv3.txt\n[0583c866-8694-46fa-9071-51a081a10c2c/build]   | ffmpeg-6.0-amd64-static/manpages/\n[0583c866-8694-46fa-9071-51a081a10c2c/build]   | ffmpeg-6.0-amd64-static/manpages/ffmpeg-all.txt\n[0583c866-8694-46fa-9071-51a081a10c2c/build]   | ffmpeg-6.0-amd64-static/manpages/ffmpeg-scaler.txt\n[0583c866-8694-46fa-9071-51a081a10c2c/build]   | ffmpeg-6.0-amd64-static/manpages/ffmpeg-resampler.txt\n[0583c866-8694-46fa-9071-51a081a10c2c/build]   | ffmpeg-6.0-amd64-static/manpages/ffmpeg-filters.txt\n[0583c866-8694-46fa-9071-51a081a10c2c/build]   | ffmpeg-6.0-amd64-static/manpages/ffprobe.txt\n[0583c866-8694-46fa-9071-51a081a10c2c/build]   | ffmpeg-6.0-amd64-static/manpages/ffmpeg-devices.txt\n[0583c866-8694-46fa-9071-51a081a10c2c/build]   | ffmpeg-6.0-amd64-static/manpages/ffmpeg-utils.txt\n[0583c866-8694-46fa-9071-51a081a10c2c/build]   | ffmpeg-6.0-amd64-static/manpages/ffmpeg-protocols.txt\n[0583c866-8694-46fa-9071-51a081a10c2c/build]   | ffmpeg-6.0-amd64-static/manpages/ffmpeg-codecs.txt\n[0583c866-8694-46fa-9071-51a081a10c2c/build]   | ffmpeg-6.0-amd64-static/manpages/ffmpeg-bitstream-filters.txt\n[0583c866-8694-46fa-9071-51a081a10c2c/build]   | ffmpeg-6.0-amd64-static/manpages/ffmpeg.txt\n[0583c866-8694-46fa-9071-51a081a10c2c/build]   | ffmpeg-6.0-amd64-static/manpages/ffmpeg-formats.txt\n[0583c866-8694-46fa-9071-51a081a10c2c/build]   | ffmpeg-6.0-amd64-static/ffprobe\n[0583c866-8694-46fa-9071-51a081a10c2c/build]   | ffmpeg-6.0-amd64-static/qt-faststart\n[0583c866-8694-46fa-9071-51a081a10c2c/build]   | ffmpeg-6.0-amd64-static/model/\n[0583c866-8694-46fa-9071-51a081a10c2c/build]   | ffmpeg-6.0-amd64-static/model/vmaf_4k_v0.6.1.json\n[0583c866-8694-46fa-9071-51a081a10c2c/build]   | ffmpeg-6.0-amd64-static/model/vmaf_rb_v0.6.3/\n[0583c866-8694-46fa-9071-51a081a10c2c/build]   | ffmpeg-6.0-amd64-static/model/vmaf_rb_v0.6.3/vmaf_rb_v0.6.3.pkl.0020.model\n[0583c866-8694-46fa-9071-51a081a10c2c/build]   | ffmpeg-6.0-amd64-static/model/vmaf_rb_v0.6.3/vmaf_rb_v0.6.3.pkl.0005\n[0583c866-8694-46fa-9071-51a081a10c2c/build]   | ffmpeg-6.0-amd64-static/model/vmaf_rb_v0.6.3/vmaf_rb_v0.6.3.pkl.0015\n[0583c866-8694-46fa-9071-51a081a10c2c/build]   | ffmpeg-6.0-amd64-static/model/vmaf_rb_v0.6.3/vmaf_rb_v0.6.3.pkl.0016.model\n[0583c866-8694-46fa-9071-51a081a10c2c/build]   | ffmpeg-6.0-amd64-static/model/vmaf_rb_v0.6.3/vmaf_rb_v0.6.3.pkl.model\n[0583c866-8694-46fa-9071-51a081a10c2c/build]   | ffmpeg-6.0-amd64-static/model/vmaf_rb_v0.6.3/vmaf_rb_v0.6.3.pkl.0008.model\n[0583c866-8694-46fa-9071-51a081a10c2c/build]   | ffmpeg-6.0-amd64-static/model/vmaf_rb_v0.6.3/vmaf_rb_v0.6.3.pkl.0020\n[0583c866-8694-46fa-9071-51a081a10c2c/build]   | ffmpeg-6.0-amd64-static/model/vmaf_rb_v0.6.3/vmaf_rb_v0.6.3.pkl.0017.model\n[0583c866-8694-46fa-9071-51a081a10c2c/build]   | ffmpeg-6.0-amd64-static/model/vmaf_rb_v0.6.3/vmaf_rb_v0.6.3.pkl.0014\n[0583c866-8694-46fa-9071-51a081a10c2c/build]   | ffmpeg-6.0-amd64-static/model/vmaf_rb_v0.6.3/vmaf_rb_v0.6.3.pkl.0011\n[0583c866-8694-46fa-9071-51a081a10c2c/build]   | ffmpeg-6.0-amd64-static/model/vmaf_rb_v0.6.3/vmaf_rb_v0.6.3.pkl.0012\n[0583c866-8694-46fa-9071-51a081a10c2c/build]   | ffmpeg-6.0-amd64-static/model/vmaf_rb_v0.6.3/vmaf_rb_v0.6.3.pkl.0004\n[0583c866-8694-46fa-9071-51a081a10c2c/build]   | ffmpeg-6.0-amd64-static/model/vmaf_rb_v0.6.3/vmaf_rb_v0.6.3.pkl.0005.model\n[0583c866-8694-46fa-9071-51a081a10c2c/build]   | ffmpeg-6.0-amd64-static/model/vmaf_rb_v0.6.3/vmaf_rb_v0.6.3.pkl.0013.model\n[0583c866-8694-46fa-9071-51a081a10c2c/build]   | ffmpeg-6.0-amd64-static/model/vmaf_rb_v0.6.3/vmaf_rb_v0.6.3.pkl.0007.model\n[0583c866-8694-46fa-9071-51a081a10c2c/build]   | ffmpeg-6.0-amd64-static/model/vmaf_rb_v0.6.3/vmaf_rb_v0.6.3.pkl.0001\n[0583c866-8694-46fa-9071-51a081a10c2c/build]   | ffmpeg-6.0-amd64-static/model/vmaf_rb_v0.6.3/vmaf_rb_v0.6.3.pkl.0009\n[0583c866-8694-46fa-9071-51a081a10c2c/build]   | ffmpeg-6.0-amd64-static/model/vmaf_rb_v0.6.3/vmaf_rb_v0.6.3.pkl.0009.model\n[0583c866-8694-46fa-9071-51a081a10c2c/build]   | ffmpeg-6.0-amd64-static/model/vmaf_rb_v0.6.3/vmaf_rb_v0.6.3.pkl.0004.model\n[0583c866-8694-46fa-9071-51a081a10c2c/build]   | ffmpeg-6.0-amd64-static/model/vmaf_rb_v0.6.3/vmaf_rb_v0.6.3.pkl.0019.model\n[0583c866-8694-46fa-9071-51a081a10c2c/build]   | ffmpeg-6.0-amd64-static/model/vmaf_rb_v0.6.3/vmaf_rb_v0.6.3.pkl.0007\n[0583c866-8694-46fa-9071-51a081a10c2c/build]   | ffmpeg-6.0-amd64-static/model/vmaf_rb_v0.6.3/vmaf_rb_v0.6.3.pkl.0006\n[0583c866-8694-46fa-9071-51a081a10c2c/build]   | ffmpeg-6.0-amd64-static/model/vmaf_rb_v0.6.3/vmaf_rb_v0.6.3.pkl.0017\n[0583c866-8694-46fa-9071-51a081a10c2c/build]   | ffmpeg-6.0-amd64-static/model/vmaf_rb_v0.6.3/vmaf_rb_v0.6.3.pkl.0011.model\n[0583c866-8694-46fa-9071-51a081a10c2c/build]   | ffmpeg-6.0-amd64-static/model/vmaf_rb_v0.6.3/vmaf_rb_v0.6.3.pkl.0008\n[0583c866-8694-46fa-9071-51a081a10c2c/build]   | ffmpeg-6.0-amd64-static/model/vmaf_rb_v0.6.3/vmaf_rb_v0.6.3.pkl.0010\n[0583c866-8694-46fa-9071-51a081a10c2c/build]   | ffmpeg-6.0-amd64-static/model/vmaf_rb_v0.6.3/vmaf_rb_v0.6.3.pkl.0018\n[0583c866-8694-46fa-9071-51a081a10c2c/build]   | ffmpeg-6.0-amd64-static/model/vmaf_rb_v0.6.3/vmaf_rb_v0.6.3.pkl.0002.model\n[0583c866-8694-46fa-9071-51a081a10c2c/build]   | ffmpeg-6.0-amd64-static/model/vmaf_rb_v0.6.3/vmaf_rb_v0.6.3.pkl.0012.model\n[0583c866-8694-46fa-9071-51a081a10c2c/build]   | ffmpeg-6.0-amd64-static/model/vmaf_rb_v0.6.3/vmaf_rb_v0.6.3.pkl\n[0583c866-8694-46fa-9071-51a081a10c2c/build]   | ffmpeg-6.0-amd64-static/model/vmaf_rb_v0.6.3/vmaf_rb_v0.6.3.pkl.0003.model\n[0583c866-8694-46fa-9071-51a081a10c2c/build]   | ffmpeg-6.0-amd64-static/model/vmaf_rb_v0.6.3/vmaf_rb_v0.6.3.pkl.0019\n[0583c866-8694-46fa-9071-51a081a10c2c/build]   | ffmpeg-6.0-amd64-static/model/vmaf_rb_v0.6.3/vmaf_rb_v0.6.3.pkl.0014.model\n[0583c866-8694-46fa-9071-51a081a10c2c/build]   | ffmpeg-6.0-amd64-static/model/vmaf_rb_v0.6.3/vmaf_rb_v0.6.3.pkl.0018.model\n[0583c866-8694-46fa-9071-51a081a10c2c/build]   | ffmpeg-6.0-amd64-static/model/vmaf_rb_v0.6.3/vmaf_rb_v0.6.3.json\n[0583c866-8694-46fa-9071-51a081a10c2c/build]   | ffmpeg-6.0-amd64-static/model/vmaf_rb_v0.6.3/vmaf_rb_v0.6.3.pkl.0016\n[0583c866-8694-46fa-9071-51a081a10c2c/build]   | ffmpeg-6.0-amd64-static/model/vmaf_rb_v0.6.3/vmaf_rb_v0.6.3.pkl.0010.model\n[0583c866-8694-46fa-9071-51a081a10c2c/build]   | ffmpeg-6.0-amd64-static/model/vmaf_rb_v0.6.3/vmaf_rb_v0.6.3.pkl.0001.model\n[0583c866-8694-46fa-9071-51a081a10c2c/build]   | ffmpeg-6.0-amd64-static/model/vmaf_rb_v0.6.3/vmaf_rb_v0.6.3.pkl.0003\n[0583c866-8694-46fa-9071-51a081a10c2c/build]   | ffmpeg-6.0-amd64-static/model/vmaf_rb_v0.6.3/vmaf_rb_v0.6.3.pkl.0015.model\n[0583c866-8694-46fa-9071-51a081a10c2c/build]   | ffmpeg-6.0-amd64-static/model/vmaf_rb_v0.6.3/vmaf_rb_v0.6.3.pkl.0013\n[0583c866-8694-46fa-9071-51a081a10c2c/build]   | ffmpeg-6.0-amd64-static/model/vmaf_rb_v0.6.3/vmaf_rb_v0.6.3.pkl.0006.model\n[0583c866-8694-46fa-9071-51a081a10c2c/build]   | ffmpeg-6.0-amd64-static/model/vmaf_rb_v0.6.3/vmaf_rb_v0.6.3.pkl.0002\n[0583c866-8694-46fa-9071-51a081a10c2c/build]   | ffmpeg-6.0-amd64-static/model/vmaf_v0.6.1.json\n[0583c866-8694-46fa-9071-51a081a10c2c/build]   | ffmpeg-6.0-amd64-static/model/vmaf_rb_v0.6.2/\n[0583c866-8694-46fa-9071-51a081a10c2c/build]   | ffmpeg-6.0-amd64-static/model/vmaf_rb_v0.6.2/vmaf_rb_v0.6.2.pkl.0019.model\n[0583c866-8694-46fa-9071-51a081a10c2c/build]   | ffmpeg-6.0-amd64-static/model/vmaf_rb_v0.6.2/vmaf_rb_v0.6.2.pkl.0005.model\n[0583c866-8694-46fa-9071-51a081a10c2c/build]   | ffmpeg-6.0-amd64-static/model/vmaf_rb_v0.6.2/vmaf_rb_v0.6.2.pkl.0004\n[0583c866-8694-46fa-9071-51a081a10c2c/build]   | ffmpeg-6.0-amd64-static/model/vmaf_rb_v0.6.2/vmaf_rb_v0.6.2.pkl.0015\n[0583c866-8694-46fa-9071-51a081a10c2c/build]   | ffmpeg-6.0-amd64-static/model/vmaf_rb_v0.6.2/vmaf_rb_v0.6.2.pkl.0010.model\n[0583c866-8694-46fa-9071-51a081a10c2c/build]   | ffmpeg-6.0-amd64-static/model/vmaf_rb_v0.6.2/vmaf_rb_v0.6.2.pkl\n[0583c866-8694-46fa-9071-51a081a10c2c/build]   | ffmpeg-6.0-amd64-static/model/vmaf_rb_v0.6.2/vmaf_rb_v0.6.2.pkl.0012.model\n[0583c866-8694-46fa-9071-51a081a10c2c/build]   | ffmpeg-6.0-amd64-static/model/vmaf_rb_v0.6.2/vmaf_rb_v0.6.2.pkl.0005\n[0583c866-8694-46fa-9071-51a081a10c2c/build]   | ffmpeg-6.0-amd64-static/model/vmaf_rb_v0.6.2/vmaf_rb_v0.6.2.pkl.0008.model\n[0583c866-8694-46fa-9071-51a081a10c2c/build]   | ffmpeg-6.0-amd64-static/model/vmaf_rb_v0.6.2/vmaf_rb_v0.6.2.pkl.0009\n[0583c866-8694-46fa-9071-51a081a10c2c/build]   | ffmpeg-6.0-amd64-static/model/vmaf_rb_v0.6.2/vmaf_rb_v0.6.2.pkl.0018\n[0583c866-8694-46fa-9071-51a081a10c2c/build]   | ffmpeg-6.0-amd64-static/model/vmaf_rb_v0.6.2/vmaf_rb_v0.6.2.pkl.0015.model\n[0583c866-8694-46fa-9071-51a081a10c2c/build]   | ffmpeg-6.0-amd64-static/model/vmaf_rb_v0.6.2/vmaf_rb_v0.6.2.pkl.0011\n[0583c866-8694-46fa-9071-51a081a10c2c/build]   | ffmpeg-6.0-amd64-static/model/vmaf_rb_v0.6.2/vmaf_rb_v0.6.2.pkl.0014.model\n[0583c866-8694-46fa-9071-51a081a10c2c/build]   | ffmpeg-6.0-amd64-static/model/vmaf_rb_v0.6.2/vmaf_rb_v0.6.2.pkl.0012\n[0583c866-8694-46fa-9071-51a081a10c2c/build]   | ffmpeg-6.0-amd64-static/model/vmaf_rb_v0.6.2/vmaf_rb_v0.6.2.pkl.0003.model\n[0583c866-8694-46fa-9071-51a081a10c2c/build]   | ffmpeg-6.0-amd64-static/model/vmaf_rb_v0.6.2/vmaf_rb_v0.6.2.pkl.0006.model\n[0583c866-8694-46fa-9071-51a081a10c2c/build]   | ffmpeg-6.0-amd64-static/model/vmaf_rb_v0.6.2/vmaf_rb_v0.6.2.pkl.0013.model\n[0583c866-8694-46fa-9071-51a081a10c2c/build]   | ffmpeg-6.0-amd64-static/model/vmaf_rb_v0.6.2/vmaf_rb_v0.6.2.pkl.0001\n[0583c866-8694-46fa-9071-51a081a10c2c/build]   | ffmpeg-6.0-amd64-static/model/vmaf_rb_v0.6.2/vmaf_rb_v0.6.2.pkl.0011.model\n[0583c866-8694-46fa-9071-51a081a10c2c/build]   | ffmpeg-6.0-amd64-static/model/vmaf_rb_v0.6.2/vmaf_rb_v0.6.2.pkl.0007\n[0583c866-8694-46fa-9071-51a081a10c2c/build]   | ffmpeg-6.0-amd64-static/model/vmaf_rb_v0.6.2/vmaf_rb_v0.6.2.pkl.0006\n[0583c866-8694-46fa-9071-51a081a10c2c/build]   | ffmpeg-6.0-amd64-static/model/vmaf_rb_v0.6.2/vmaf_rb_v0.6.2.pkl.model\n[0583c866-8694-46fa-9071-51a081a10c2c/build]   | ffmpeg-6.0-amd64-static/model/vmaf_rb_v0.6.2/vmaf_rb_v0.6.2.pkl.0017\n[0583c866-8694-46fa-9071-51a081a10c2c/build]   | ffmpeg-6.0-amd64-static/model/vmaf_rb_v0.6.2/vmaf_rb_v0.6.2.pkl.0008\n[0583c866-8694-46fa-9071-51a081a10c2c/build]   | ffmpeg-6.0-amd64-static/model/vmaf_rb_v0.6.2/vmaf_rb_v0.6.2.pkl.0003\n[0583c866-8694-46fa-9071-51a081a10c2c/build]   | ffmpeg-6.0-amd64-static/model/vmaf_rb_v0.6.2/vmaf_rb_v0.6.2.pkl.0002\n[0583c866-8694-46fa-9071-51a081a10c2c/build]   | ffmpeg-6.0-amd64-static/model/vmaf_rb_v0.6.2/vmaf_rb_v0.6.2.pkl.0004.model\n[0583c866-8694-46fa-9071-51a081a10c2c/build]   | ffmpeg-6.0-amd64-static/model/vmaf_rb_v0.6.2/vmaf_rb_v0.6.2.pkl.0001.model\n[0583c866-8694-46fa-9071-51a081a10c2c/build]   | ffmpeg-6.0-amd64-static/model/vmaf_rb_v0.6.2/vmaf_rb_v0.6.2.pkl.0018.model\n[0583c866-8694-46fa-9071-51a081a10c2c/build]   | ffmpeg-6.0-amd64-static/model/vmaf_rb_v0.6.2/vmaf_rb_v0.6.2.pkl.0002.model\n[0583c866-8694-46fa-9071-51a081a10c2c/build]   | ffmpeg-6.0-amd64-static/model/vmaf_rb_v0.6.2/vmaf_rb_v0.6.2.json\n[0583c866-8694-46fa-9071-51a081a10c2c/build]   | ffmpeg-6.0-amd64-static/model/vmaf_rb_v0.6.2/vmaf_rb_v0.6.2.pkl.0014\n[0583c866-8694-46fa-9071-51a081a10c2c/build]   | ffmpeg-6.0-amd64-static/model/vmaf_rb_v0.6.2/vmaf_rb_v0.6.2.pkl.0017.model\n[0583c866-8694-46fa-9071-51a081a10c2c/build]   | ffmpeg-6.0-amd64-static/model/vmaf_rb_v0.6.2/vmaf_rb_v0.6.2.pkl.0019\n[0583c866-8694-46fa-9071-51a081a10c2c/build]   | ffmpeg-6.0-amd64-static/model/vmaf_rb_v0.6.2/vmaf_rb_v0.6.2.pkl.0009.model\n[0583c866-8694-46fa-9071-51a081a10c2c/build]   | ffmpeg-6.0-amd64-static/model/vmaf_rb_v0.6.2/vmaf_rb_v0.6.2.pkl.0013\n[0583c866-8694-46fa-9071-51a081a10c2c/build]   | ffmpeg-6.0-amd64-static/model/vmaf_rb_v0.6.2/vmaf_rb_v0.6.2.pkl.0007.model\n[0583c866-8694-46fa-9071-51a081a10c2c/build]   | ffmpeg-6.0-amd64-static/model/vmaf_rb_v0.6.2/vmaf_rb_v0.6.2.pkl.0016.model\n[0583c866-8694-46fa-9071-51a081a10c2c/build]   | ffmpeg-6.0-amd64-static/model/vmaf_rb_v0.6.2/vmaf_rb_v0.6.2.pkl.0010\n[0583c866-8694-46fa-9071-51a081a10c2c/build]   | ffmpeg-6.0-amd64-static/model/vmaf_rb_v0.6.2/vmaf_rb_v0.6.2.pkl.0016\n[0583c866-8694-46fa-9071-51a081a10c2c/build]   | ffmpeg-6.0-amd64-static/model/vmaf_float_v0.6.1.pkl\n[0583c866-8694-46fa-9071-51a081a10c2c/build]   | ffmpeg-6.0-amd64-static/model/vmaf_float_v0.6.1neg.pkl.model\n[0583c866-8694-46fa-9071-51a081a10c2c/build]   | ffmpeg-6.0-amd64-static/model/vmaf_float_b_v0.6.3.json\n[0583c866-8694-46fa-9071-51a081a10c2c/build]   | ffmpeg-6.0-amd64-static/model/vmaf_v0.6.1neg.json\n[0583c866-8694-46fa-9071-51a081a10c2c/build]   | ffmpeg-6.0-amd64-static/model/000-PLEASE-README.TXT\n[0583c866-8694-46fa-9071-51a081a10c2c/build]   | ffmpeg-6.0-amd64-static/model/vmaf_float_4k_v0.6.1.json\n[0583c866-8694-46fa-9071-51a081a10c2c/build]   | ffmpeg-6.0-amd64-static/model/vmaf_4k_rb_v0.6.2/\n[0583c866-8694-46fa-9071-51a081a10c2c/build]   | ffmpeg-6.0-amd64-static/model/vmaf_4k_rb_v0.6.2/vmaf_4k_rb_v0.6.2.pkl.0008.model\n[0583c866-8694-46fa-9071-51a081a10c2c/build]   | ffmpeg-6.0-amd64-static/model/vmaf_4k_rb_v0.6.2/vmaf_4k_rb_v0.6.2.pkl.0012\n[0583c866-8694-46fa-9071-51a081a10c2c/build]   | ffmpeg-6.0-amd64-static/model/vmaf_4k_rb_v0.6.2/vmaf_4k_rb_v0.6.2.pkl.0002.model\n[0583c866-8694-46fa-9071-51a081a10c2c/build]   | ffmpeg-6.0-amd64-static/model/vmaf_4k_rb_v0.6.2/vmaf_4k_rb_v0.6.2.pkl.0007.model\n[0583c866-8694-46fa-9071-51a081a10c2c/build]   | ffmpeg-6.0-amd64-static/model/vmaf_4k_rb_v0.6.2/vmaf_4k_rb_v0.6.2.pkl.0011.model\n[0583c866-8694-46fa-9071-51a081a10c2c/build]   | ffmpeg-6.0-amd64-static/model/vmaf_4k_rb_v0.6.2/vmaf_4k_rb_v0.6.2.pkl.0019\n[0583c866-8694-46fa-9071-51a081a10c2c/build]   | ffmpeg-6.0-amd64-static/model/vmaf_4k_rb_v0.6.2/vmaf_4k_rb_v0.6.2.pkl.0017.model\n[0583c866-8694-46fa-9071-51a081a10c2c/build]   | ffmpeg-6.0-amd64-static/model/vmaf_4k_rb_v0.6.2/vmaf_4k_rb_v0.6.2.pkl.0017\n[0583c866-8694-46fa-9071-51a081a10c2c/build]   | ffmpeg-6.0-amd64-static/model/vmaf_4k_rb_v0.6.2/vmaf_4k_rb_v0.6.2.pkl.0009\n[0583c866-8694-46fa-9071-51a081a10c2c/build]   | ffmpeg-6.0-amd64-static/model/vmaf_4k_rb_v0.6.2/vmaf_4k_rb_v0.6.2.pkl.0010\n[0583c866-8694-46fa-9071-51a081a10c2c/build]   | ffmpeg-6.0-amd64-static/model/vmaf_4k_rb_v0.6.2/vmaf_4k_rb_v0.6.2.pkl.0005.model\n[0583c866-8694-46fa-9071-51a081a10c2c/build]   | ffmpeg-6.0-amd64-static/model/vmaf_4k_rb_v0.6.2/vmaf_4k_rb_v0.6.2.pkl.0009.model\n[0583c866-8694-46fa-9071-51a081a10c2c/build]   | ffmpeg-6.0-amd64-static/model/vmaf_4k_rb_v0.6.2/vmaf_4k_rb_v0.6.2.pkl.0013\n[0583c866-8694-46fa-9071-51a081a10c2c/build]   | ffmpeg-6.0-amd64-static/model/vmaf_4k_rb_v0.6.2/vmaf_4k_rb_v0.6.2.pkl.0018\n[0583c866-8694-46fa-9071-51a081a10c2c/build]   | ffmpeg-6.0-amd64-static/model/vmaf_4k_rb_v0.6.2/vmaf_4k_rb_v0.6.2.pkl.0013.model\n[0583c866-8694-46fa-9071-51a081a10c2c/build]   | ffmpeg-6.0-amd64-static/model/vmaf_4k_rb_v0.6.2/vmaf_4k_rb_v0.6.2.pkl.0014\n[0583c866-8694-46fa-9071-51a081a10c2c/build]   | ffmpeg-6.0-amd64-static/model/vmaf_4k_rb_v0.6.2/vmaf_4k_rb_v0.6.2.pkl.0004\n[0583c866-8694-46fa-9071-51a081a10c2c/build]   | ffmpeg-6.0-amd64-static/model/vmaf_4k_rb_v0.6.2/vmaf_4k_rb_v0.6.2.pkl.0006.model\n[0583c866-8694-46fa-9071-51a081a10c2c/build]   | ffmpeg-6.0-amd64-static/model/vmaf_4k_rb_v0.6.2/vmaf_4k_rb_v0.6.2.pkl.0005\n[0583c866-8694-46fa-9071-51a081a10c2c/build]   | ffmpeg-6.0-amd64-static/model/vmaf_4k_rb_v0.6.2/vmaf_4k_rb_v0.6.2.pkl.0007\n[0583c866-8694-46fa-9071-51a081a10c2c/build]   | ffmpeg-6.0-amd64-static/model/vmaf_4k_rb_v0.6.2/vmaf_4k_rb_v0.6.2.pkl.0019.model\n[0583c866-8694-46fa-9071-51a081a10c2c/build]   | ffmpeg-6.0-amd64-static/model/vmaf_4k_rb_v0.6.2/vmaf_4k_rb_v0.6.2.pkl.0015.model\n[0583c866-8694-46fa-9071-51a081a10c2c/build]   | ffmpeg-6.0-amd64-static/model/vmaf_4k_rb_v0.6.2/vmaf_4k_rb_v0.6.2.pkl.0010.model\n[0583c866-8694-46fa-9071-51a081a10c2c/build]   | ffmpeg-6.0-amd64-static/model/vmaf_4k_rb_v0.6.2/vmaf_4k_rb_v0.6.2.pkl.0008\n[0583c866-8694-46fa-9071-51a081a10c2c/build]   | ffmpeg-6.0-amd64-static/model/vmaf_4k_rb_v0.6.2/vmaf_4k_rb_v0.6.2.pkl.0004.model\n[0583c866-8694-46fa-9071-51a081a10c2c/build]   | ffmpeg-6.0-amd64-static/model/vmaf_4k_rb_v0.6.2/vmaf_4k_rb_v0.6.2.json\n[0583c866-8694-46fa-9071-51a081a10c2c/build]   | ffmpeg-6.0-amd64-static/model/vmaf_4k_rb_v0.6.2/vmaf_4k_rb_v0.6.2.pkl\n[0583c866-8694-46fa-9071-51a081a10c2c/build]   | ffmpeg-6.0-amd64-static/model/vmaf_4k_rb_v0.6.2/vmaf_4k_rb_v0.6.2.pkl.0006\n[0583c866-8694-46fa-9071-51a081a10c2c/build]   | ffmpeg-6.0-amd64-static/model/vmaf_4k_rb_v0.6.2/vmaf_4k_rb_v0.6.2.pkl.0001.model\n[0583c866-8694-46fa-9071-51a081a10c2c/build]   | ffmpeg-6.0-amd64-static/model/vmaf_4k_rb_v0.6.2/vmaf_4k_rb_v0.6.2.pkl.0016.model\n[0583c866-8694-46fa-9071-51a081a10c2c/build]   | ffmpeg-6.0-amd64-static/model/vmaf_4k_rb_v0.6.2/vmaf_4k_rb_v0.6.2.pkl.model\n[0583c866-8694-46fa-9071-51a081a10c2c/build]   | ffmpeg-6.0-amd64-static/model/vmaf_4k_rb_v0.6.2/vmaf_4k_rb_v0.6.2.pkl.0015\n[0583c866-8694-46fa-9071-51a081a10c2c/build]   | ffmpeg-6.0-amd64-static/model/vmaf_4k_rb_v0.6.2/vmaf_4k_rb_v0.6.2.pkl.0003.model\n[0583c866-8694-46fa-9071-51a081a10c2c/build]   | ffmpeg-6.0-amd64-static/model/vmaf_4k_rb_v0.6.2/vmaf_4k_rb_v0.6.2.pkl.0011\n[0583c866-8694-46fa-9071-51a081a10c2c/build]   | ffmpeg-6.0-amd64-static/model/vmaf_4k_rb_v0.6.2/vmaf_4k_rb_v0.6.2.pkl.0016\n[0583c866-8694-46fa-9071-51a081a10c2c/build]   | ffmpeg-6.0-amd64-static/model/vmaf_4k_rb_v0.6.2/vmaf_4k_rb_v0.6.2.pkl.0003\n[0583c866-8694-46fa-9071-51a081a10c2c/build]   | ffmpeg-6.0-amd64-static/model/vmaf_4k_rb_v0.6.2/vmaf_4k_rb_v0.6.2.pkl.0014.model\n[0583c866-8694-46fa-9071-51a081a10c2c/build]   | ffmpeg-6.0-amd64-static/model/vmaf_4k_rb_v0.6.2/vmaf_4k_rb_v0.6.2.pkl.0018.model\n[0583c866-8694-46fa-9071-51a081a10c2c/build]   | ffmpeg-6.0-amd64-static/model/vmaf_4k_rb_v0.6.2/vmaf_4k_rb_v0.6.2.pkl.0001\n[0583c866-8694-46fa-9071-51a081a10c2c/build]   | ffmpeg-6.0-amd64-static/model/vmaf_4k_rb_v0.6.2/vmaf_4k_rb_v0.6.2.pkl.0002\n[0583c866-8694-46fa-9071-51a081a10c2c/build]   | ffmpeg-6.0-amd64-static/model/vmaf_4k_rb_v0.6.2/vmaf_4k_rb_v0.6.2.pkl.0012.model\n[0583c866-8694-46fa-9071-51a081a10c2c/build]   | ffmpeg-6.0-amd64-static/model/vmaf_float_v0.6.1neg.json\n[0583c866-8694-46fa-9071-51a081a10c2c/build]   | ffmpeg-6.0-amd64-static/model/vmaf_float_v0.6.1neg.pkl\n[0583c866-8694-46fa-9071-51a081a10c2c/build]   | ffmpeg-6.0-amd64-static/model/vmaf_b_v0.6.3.json\n[0583c866-8694-46fa-9071-51a081a10c2c/build]   | ffmpeg-6.0-amd64-static/model/vmaf_float_b_v0.6.3/\n[0583c866-8694-46fa-9071-51a081a10c2c/build]   | ffmpeg-6.0-amd64-static/model/vmaf_float_b_v0.6.3/vmaf_float_b_v0.6.3.pkl.0003\n[0583c866-8694-46fa-9071-51a081a10c2c/build]   | ffmpeg-6.0-amd64-static/model/vmaf_float_b_v0.6.3/vmaf_float_b_v0.6.3.pkl.0015.model\n[0583c866-8694-46fa-9071-51a081a10c2c/build]   | ffmpeg-6.0-amd64-static/model/vmaf_float_b_v0.6.3/vmaf_float_b_v0.6.3.pkl.0001.model\n[0583c866-8694-46fa-9071-51a081a10c2c/build]   | ffmpeg-6.0-amd64-static/model/vmaf_float_b_v0.6.3/vmaf_float_b_v0.6.3.pkl\n[0583c866-8694-46fa-9071-51a081a10c2c/build]   | ffmpeg-6.0-amd64-static/model/vmaf_float_b_v0.6.3/vmaf_float_b_v0.6.3.pkl.0012\n[0583c866-8694-46fa-9071-51a081a10c2c/build]   | ffmpeg-6.0-amd64-static/model/vmaf_float_b_v0.6.3/vmaf_float_b_v0.6.3.pkl.0019.model\n[0583c866-8694-46fa-9071-51a081a10c2c/build]   | ffmpeg-6.0-amd64-static/model/vmaf_float_b_v0.6.3/vmaf_float_b_v0.6.3.pkl.0017\n[0583c866-8694-46fa-9071-51a081a10c2c/build]   | ffmpeg-6.0-amd64-static/model/vmaf_float_b_v0.6.3/vmaf_float_b_v0.6.3.pkl.0012.model\n[0583c866-8694-46fa-9071-51a081a10c2c/build]   | ffmpeg-6.0-amd64-static/model/vmaf_float_b_v0.6.3/vmaf_float_b_v0.6.3.pkl.0003.model\n[0583c866-8694-46fa-9071-51a081a10c2c/build]   | ffmpeg-6.0-amd64-static/model/vmaf_float_b_v0.6.3/vmaf_float_b_v0.6.3.pkl.0009.model\n[0583c866-8694-46fa-9071-51a081a10c2c/build]   | ffmpeg-6.0-amd64-static/model/vmaf_float_b_v0.6.3/vmaf_float_b_v0.6.3.pkl.0016\n[0583c866-8694-46fa-9071-51a081a10c2c/build]   | ffmpeg-6.0-amd64-static/model/vmaf_float_b_v0.6.3/vmaf_float_b_v0.6.3.pkl.0008.model\n[0583c866-8694-46fa-9071-51a081a10c2c/build]   | ffmpeg-6.0-amd64-static/model/vmaf_float_b_v0.6.3/vmaf_float_b_v0.6.3.pkl.0015\n[0583c866-8694-46fa-9071-51a081a10c2c/build]   | ffmpeg-6.0-amd64-static/model/vmaf_float_b_v0.6.3/vmaf_float_b_v0.6.3.pkl.0006\n[0583c866-8694-46fa-9071-51a081a10c2c/build]   | ffmpeg-6.0-amd64-static/model/vmaf_float_b_v0.6.3/vmaf_float_b_v0.6.3.pkl.0009\n[0583c866-8694-46fa-9071-51a081a10c2c/build]   | ffmpeg-6.0-amd64-static/model/vmaf_float_b_v0.6.3/vmaf_float_b_v0.6.3.pkl.0004.model\n[0583c866-8694-46fa-9071-51a081a10c2c/build]   | ffmpeg-6.0-amd64-static/model/vmaf_float_b_v0.6.3/vmaf_float_b_v0.6.3.pkl.0017.model\n[0583c866-8694-46fa-9071-51a081a10c2c/build]   | ffmpeg-6.0-amd64-static/model/vmaf_float_b_v0.6.3/vmaf_float_b_v0.6.3.json\n[0583c866-8694-46fa-9071-51a081a10c2c/build]   | ffmpeg-6.0-amd64-static/model/vmaf_float_b_v0.6.3/vmaf_float_b_v0.6.3.pkl.0008\n[0583c866-8694-46fa-9071-51a081a10c2c/build]   | ffmpeg-6.0-amd64-static/model/vmaf_float_b_v0.6.3/vmaf_float_b_v0.6.3.pkl.0001\n[0583c866-8694-46fa-9071-51a081a10c2c/build]   | ffmpeg-6.0-amd64-static/model/vmaf_float_b_v0.6.3/vmaf_float_b_v0.6.3.pkl.0011\n[0583c866-8694-46fa-9071-51a081a10c2c/build]   | ffmpeg-6.0-amd64-static/model/vmaf_float_b_v0.6.3/vmaf_float_b_v0.6.3.pkl.0004\n[0583c866-8694-46fa-9071-51a081a10c2c/build]   | ffmpeg-6.0-amd64-static/model/vmaf_float_b_v0.6.3/vmaf_float_b_v0.6.3.pkl.0002.model\n[0583c866-8694-46fa-9071-51a081a10c2c/build]   | ffmpeg-6.0-amd64-static/model/vmaf_float_b_v0.6.3/vmaf_float_b_v0.6.3.pkl.0005\n[0583c866-8694-46fa-9071-51a081a10c2c/build]   | ffmpeg-6.0-amd64-static/model/vmaf_float_b_v0.6.3/vmaf_float_b_v0.6.3.pkl.0014\n[0583c866-8694-46fa-9071-51a081a10c2c/build]   | ffmpeg-6.0-amd64-static/model/vmaf_float_b_v0.6.3/vmaf_float_b_v0.6.3.pkl.0014.model\n[0583c866-8694-46fa-9071-51a081a10c2c/build]   | ffmpeg-6.0-amd64-static/model/vmaf_float_b_v0.6.3/vmaf_float_b_v0.6.3.pkl.0007.model\n[0583c866-8694-46fa-9071-51a081a10c2c/build]   | ffmpeg-6.0-amd64-static/model/vmaf_float_b_v0.6.3/vmaf_float_b_v0.6.3.pkl.model\n[0583c866-8694-46fa-9071-51a081a10c2c/build]   | ffmpeg-6.0-amd64-static/model/vmaf_float_b_v0.6.3/vmaf_float_b_v0.6.3.pkl.0002\n[0583c866-8694-46fa-9071-51a081a10c2c/build]   | ffmpeg-6.0-amd64-static/model/vmaf_float_b_v0.6.3/vmaf_float_b_v0.6.3.pkl.0020.model\n[0583c866-8694-46fa-9071-51a081a10c2c/build]   | ffmpeg-6.0-amd64-static/model/vmaf_float_b_v0.6.3/vmaf_float_b_v0.6.3.pkl.0007\n[0583c866-8694-46fa-9071-51a081a10c2c/build]   | ffmpeg-6.0-amd64-static/model/vmaf_float_b_v0.6.3/vmaf_float_b_v0.6.3.pkl.0018.model\n[0583c866-8694-46fa-9071-51a081a10c2c/build]   | ffmpeg-6.0-amd64-static/model/vmaf_float_b_v0.6.3/vmaf_float_b_v0.6.3.pkl.0020\n[0583c866-8694-46fa-9071-51a081a10c2c/build]   | ffmpeg-6.0-amd64-static/model/vmaf_float_b_v0.6.3/vmaf_float_b_v0.6.3.pkl.0010\n[0583c866-8694-46fa-9071-51a081a10c2c/build]   | ffmpeg-6.0-amd64-static/model/vmaf_float_b_v0.6.3/vmaf_float_b_v0.6.3.pkl.0013.model\n[0583c866-8694-46fa-9071-51a081a10c2c/build]   | ffmpeg-6.0-amd64-static/model/vmaf_float_b_v0.6.3/vmaf_float_b_v0.6.3.pkl.0011.model\n[0583c866-8694-46fa-9071-51a081a10c2c/build]   | ffmpeg-6.0-amd64-static/model/vmaf_float_b_v0.6.3/vmaf_float_b_v0.6.3.pkl.0016.model\n[0583c866-8694-46fa-9071-51a081a10c2c/build]   | ffmpeg-6.0-amd64-static/model/vmaf_float_b_v0.6.3/vmaf_float_b_v0.6.3.pkl.0010.model\n[0583c866-8694-46fa-9071-51a081a10c2c/build]   | ffmpeg-6.0-amd64-static/model/vmaf_float_b_v0.6.3/vmaf_float_b_v0.6.3.pkl.0006.model\n[0583c866-8694-46fa-9071-51a081a10c2c/build]   | ffmpeg-6.0-amd64-static/model/vmaf_float_b_v0.6.3/vmaf_float_b_v0.6.3.pkl.0019\n[0583c866-8694-46fa-9071-51a081a10c2c/build]   | ffmpeg-6.0-amd64-static/model/vmaf_float_b_v0.6.3/vmaf_float_b_v0.6.3.pkl.0013\n[0583c866-8694-46fa-9071-51a081a10c2c/build]   | ffmpeg-6.0-amd64-static/model/vmaf_float_b_v0.6.3/vmaf_float_b_v0.6.3.pkl.0018\n[0583c866-8694-46fa-9071-51a081a10c2c/build]   | ffmpeg-6.0-amd64-static/model/vmaf_float_b_v0.6.3/vmaf_float_b_v0.6.3.pkl.0005.model\n[0583c866-8694-46fa-9071-51a081a10c2c/build]   | ffmpeg-6.0-amd64-static/model/vmaf_float_v0.6.1.json\n[0583c866-8694-46fa-9071-51a081a10c2c/build]   | ffmpeg-6.0-amd64-static/model/other_models/\n[0583c866-8694-46fa-9071-51a081a10c2c/build]   | ffmpeg-6.0-amd64-static/model/other_models/nflxall_vmafv2.pkl.model\n[0583c866-8694-46fa-9071-51a081a10c2c/build]   | ffmpeg-6.0-amd64-static/model/other_models/vmaf_v0.6.0.pkl\n[0583c866-8694-46fa-9071-51a081a10c2c/build]   | ffmpeg-6.0-amd64-static/model/other_models/nflx_vmaff_rf_v2.pkl\n[0583c866-8694-46fa-9071-51a081a10c2c/build]   | ffmpeg-6.0-amd64-static/model/other_models/vmaf_v0.6.0.json\n[0583c866-8694-46fa-9071-51a081a10c2c/build]   | ffmpeg-6.0-amd64-static/model/other_models/nflxtrain_vmafv2.pkl\n[0583c866-8694-46fa-9071-51a081a10c2c/build]   | ffmpeg-6.0-amd64-static/model/other_models/nflxtrain_vmafv3.pkl\n[0583c866-8694-46fa-9071-51a081a10c2c/build]   | ffmpeg-6.0-amd64-static/model/other_models/niqe_v0.1.pkl\n[0583c866-8694-46fa-9071-51a081a10c2c/build]   | ffmpeg-6.0-amd64-static/model/other_models/nflxtrain_libsvmnusvr_currentbest.pkl.model\n[0583c866-8694-46fa-9071-51a081a10c2c/build]   | ffmpeg-6.0-amd64-static/model/other_models/nflxall_vmafv3.pkl.model\n[0583c866-8694-46fa-9071-51a081a10c2c/build]   | ffmpeg-6.0-amd64-static/model/other_models/nflxall_vmafv1.pkl\n[0583c866-8694-46fa-9071-51a081a10c2c/build]   | ffmpeg-6.0-amd64-static/model/other_models/nflx_v1.pkl\n[0583c866-8694-46fa-9071-51a081a10c2c/build]   | ffmpeg-6.0-amd64-static/model/other_models/vmaf_4k_v0.6.1rc.pkl\n[0583c866-8694-46fa-9071-51a081a10c2c/build]   | ffmpeg-6.0-amd64-static/model/other_models/nflxall_vmafv4.pkl\n[0583c866-8694-46fa-9071-51a081a10c2c/build]   | ffmpeg-6.0-amd64-static/model/other_models/vmaf_4k_v0.6.1rc.pkl.model\n[0583c866-8694-46fa-9071-51a081a10c2c/build]   | ffmpeg-6.0-amd64-static/model/other_models/nflx_v1.pkl.model\n[0583c866-8694-46fa-9071-51a081a10c2c/build]   | ffmpeg-6.0-amd64-static/model/other_models/nflxtrain_vmafv1.pkl.model\n[0583c866-8694-46fa-9071-51a081a10c2c/build]   | ffmpeg-6.0-amd64-static/model/other_models/nflxall_vmafv4.pkl.model\n[0583c866-8694-46fa-9071-51a081a10c2c/build]   | ffmpeg-6.0-amd64-static/model/other_models/nflx_v1.json\n[0583c866-8694-46fa-9071-51a081a10c2c/build]   | ffmpeg-6.0-amd64-static/model/other_models/nflxtrain_vmafv1.pkl\n[0583c866-8694-46fa-9071-51a081a10c2c/build]   | ffmpeg-6.0-amd64-static/model/other_models/nflxall_libsvmnusvr_currentbest.pkl.model\n[0583c866-8694-46fa-9071-51a081a10c2c/build]   | ffmpeg-6.0-amd64-static/model/other_models/nflxtrain_vmafv3a.pkl\n[0583c866-8694-46fa-9071-51a081a10c2c/build]   | ffmpeg-6.0-amd64-static/model/other_models/nflxtrain_vmafv3.pkl.model\n[0583c866-8694-46fa-9071-51a081a10c2c/build]   | ffmpeg-6.0-amd64-static/model/other_models/nflxtrain_norm_type_none.pkl\n[0583c866-8694-46fa-9071-51a081a10c2c/build]   | ffmpeg-6.0-amd64-static/model/other_models/vmaf_v0.6.0.pkl.model\n[0583c866-8694-46fa-9071-51a081a10c2c/build]   | ffmpeg-6.0-amd64-static/model/other_models/vmaf_v0.6.1mfz.json\n[0583c866-8694-46fa-9071-51a081a10c2c/build]   | ffmpeg-6.0-amd64-static/model/other_models/nflxall_vmafv3a.pkl\n[0583c866-8694-46fa-9071-51a081a10c2c/build]   | ffmpeg-6.0-amd64-static/model/other_models/nflxall_vmafv1.pkl.model\n[0583c866-8694-46fa-9071-51a081a10c2c/build]   | ffmpeg-6.0-amd64-static/model/other_models/nflxall_vmafv3.pkl\n[0583c866-8694-46fa-9071-51a081a10c2c/build]   | ffmpeg-6.0-amd64-static/model/other_models/nflxtrain_libsvmnusvr_currentbest.pkl\n[0583c866-8694-46fa-9071-51a081a10c2c/build]   | ffmpeg-6.0-amd64-static/model/other_models/nflxall_libsvmnusvr_currentbest.pkl\n[0583c866-8694-46fa-9071-51a081a10c2c/build]   | ffmpeg-6.0-amd64-static/model/other_models/nflx_vmaff_rf_v1.pkl\n[0583c866-8694-46fa-9071-51a081a10c2c/build]   | ffmpeg-6.0-amd64-static/model/other_models/nflxtrain_vmafv2.pkl.model\n[0583c866-8694-46fa-9071-51a081a10c2c/build]   | ffmpeg-6.0-amd64-static/model/other_models/nflxall_vmafv2.pkl\n[0583c866-8694-46fa-9071-51a081a10c2c/build]   | ffmpeg-6.0-amd64-static/model/other_models/model_V8a.model\n[0583c866-8694-46fa-9071-51a081a10c2c/build]   | ffmpeg-6.0-amd64-static/model/other_models/nflxtrain_norm_type_none.pkl.model\n[0583c866-8694-46fa-9071-51a081a10c2c/build]   | ffmpeg-6.0-amd64-static/model/other_models/nflxtrain_vmafv3a.pkl.model\n[0583c866-8694-46fa-9071-51a081a10c2c/build]   | ffmpeg-6.0-amd64-static/model/other_models/nflxall_vmafv3a.pkl.model\n[0583c866-8694-46fa-9071-51a081a10c2c/build]   | ffmpeg-6.0-amd64-static/model/other_models/nflxtrain_norm_type_none.json\n[0583c866-8694-46fa-9071-51a081a10c2c/build]   | ffmpeg-6.0-amd64-static/model/vmaf_float_v0.6.1.pkl.model\n[0583c866-8694-46fa-9071-51a081a10c2c/build]   | ffmpeg-6.0-amd64-static/readme.txt\n[0583c866-8694-46fa-9071-51a081a10c2c/build]   | ffmpeg-6.0-amd64-static/ffmpeg\n[0583c866-8694-46fa-9071-51a081a10c2c/build]   \u2705  Success - Main Download ffmpeg if not cached\n[0583c866-8694-46fa-9071-51a081a10c2c/build] \u2b50 Run Main Install dependencies\n[0583c866-8694-46fa-9071-51a081a10c2c/build]   \ud83d\udc33  docker exec cmd=[bash --noprofile --norc -e -o pipefail /var/run/act/workflow/4] user= workdir=\n[0583c866-8694-46fa-9071-51a081a10c2c/build]   | Requirement already satisfied: pip in /opt/hostedtoolcache/Python/3.8.11/x64/lib/python3.8/site-packages (21.2.4)\n[0583c866-8694-46fa-9071-51a081a10c2c/build]   | Collecting pip\n[0583c866-8694-46fa-9071-51a081a10c2c/build]   |   Downloading pip-23.1.2-py3-none-any.whl (2.1 MB)\n[0583c866-8694-46fa-9071-51a081a10c2c/build]   | Installing collected packages: pip\n[0583c866-8694-46fa-9071-51a081a10c2c/build]   |   Attempting uninstall: pip\n[0583c866-8694-46fa-9071-51a081a10c2c/build]   |     Found existing installation: pip 21.2.4\n[0583c866-8694-46fa-9071-51a081a10c2c/build]   |     Uninstalling pip-21.2.4:\n[0583c866-8694-46fa-9071-51a081a10c2c/build]   |       Successfully uninstalled pip-21.2.4\n[0583c866-8694-46fa-9071-51a081a10c2c/build]   | Successfully installed pip-23.1.2\n[0583c866-8694-46fa-9071-51a081a10c2c/build]   | Collecting flake8\n[0583c866-8694-46fa-9071-51a081a10c2c/build]   |   Downloading flake8-6.0.0-py2.py3-none-any.whl (57 kB)\n[0583c866-8694-46fa-9071-51a081a10c2c/build]   |      \u2501\u2501\u2501\u2501\u2501\u2501\u2501\u2501\u2501\u2501\u2501\u2501\u2501\u2501\u2501\u2501\u2501\u2501\u2501\u2501\u2501\u2501\u2501\u2501\u2501\u2501\u2501\u2501\u2501\u2501\u2501\u2501\u2501\u2501\u2501\u2501\u2501\u2501\u2501 57.8/57.8 kB 916.7 kB/s eta 0:00:00\n[0583c866-8694-46fa-9071-51a081a10c2c/build]   | Collecting mypy==0.991\n[0583c866-8694-46fa-9071-51a081a10c2c/build]   |   Downloading mypy-0.991-cp38-cp38-manylinux_2_17_x86_64.manylinux2014_x86_64.whl (17.9 MB)\n[0583c866-8694-46fa-9071-51a081a10c2c/build]   |      \u2501\u2501\u2501\u2501\u2501\u2501\u2501\u2501\u2501\u2501\u2501\u2501\u2501\u2501\u2501\u2501\u2501\u2501\u2501\u2501\u2501\u2501\u2501\u2501\u2501\u2501\u2501\u2501\u2501\u2501\u2501\u2501\u2501\u2501\u2501\u2501\u2501\u2501\u2501\u2501 17.9/17.9 MB 17.6 MB/s eta 0:00:00\n[0583c866-8694-46fa-9071-51a081a10c2c/build]   | Collecting typing-extensions>=3.10 (from mypy==0.991)\n[0583c866-8694-46fa-9071-51a081a10c2c/build]   |   Downloading typing_extensions-4.6.3-py3-none-any.whl (31 kB)\n[0583c866-8694-46fa-9071-51a081a10c2c/build]   | Collecting mypy-extensions>=0.4.3 (from mypy==0.991)\n[0583c866-8694-46fa-9071-51a081a10c2c/build]   |   Downloading mypy_extensions-1.0.0-py3-none-any.whl (4.7 kB)\n[0583c866-8694-46fa-9071-51a081a10c2c/build]   | Collecting tomli>=1.1.0 (from mypy==0.991)\n[0583c866-8694-46fa-9071-51a081a10c2c/build]   |   Downloading tomli-2.0.1-py3-none-any.whl (12 kB)\n[0583c866-8694-46fa-9071-51a081a10c2c/build]   | Collecting mccabe<0.8.0,>=0.7.0 (from flake8)\n[0583c866-8694-46fa-9071-51a081a10c2c/build]   |   Downloading mccabe-0.7.0-py2.py3-none-any.whl (7.3 kB)\n[0583c866-8694-46fa-9071-51a081a10c2c/build]   | Collecting pycodestyle<2.11.0,>=2.10.0 (from flake8)\n[0583c866-8694-46fa-9071-51a081a10c2c/build]   |   Downloading pycodestyle-2.10.0-py2.py3-none-any.whl (41 kB)\n[0583c866-8694-46fa-9071-51a081a10c2c/build]   |      \u2501\u2501\u2501\u2501\u2501\u2501\u2501\u2501\u2501\u2501\u2501\u2501\u2501\u2501\u2501\u2501\u2501\u2501\u2501\u2501\u2501\u2501\u2501\u2501\u2501\u2501\u2501\u2501\u2501\u2501\u2501\u2501\u2501\u2501\u2501\u2501\u2501\u2501\u2501 41.3/41.3 kB 841.9 kB/s eta 0:00:00\n[0583c866-8694-46fa-9071-51a081a10c2c/build]   | Collecting pyflakes<3.1.0,>=3.0.0 (from flake8)\n[0583c866-8694-46fa-9071-51a081a10c2c/build]   |   Downloading pyflakes-3.0.1-py2.py3-none-any.whl (62 kB)\n[0583c866-8694-46fa-9071-51a081a10c2c/build]   |      \u2501\u2501\u2501\u2501\u2501\u2501\u2501\u2501\u2501\u2501\u2501\u2501\u2501\u2501\u2501\u2501\u2501\u2501\u2501\u2501\u2501\u2501\u2501\u2501\u2501\u2501\u2501\u2501\u2501\u2501\u2501\u2501\u2501\u2501\u2501\u2501\u2501\u2501\u2501\u2501 62.8/62.8 kB 6.0 MB/s eta 0:00:00\n[0583c866-8694-46fa-9071-51a081a10c2c/build]   | Installing collected packages: typing-extensions, tomli, pyflakes, pycodestyle, mypy-extensions, mccabe, mypy, flake8\n[0583c866-8694-46fa-9071-51a081a10c2c/build]   | Successfully installed flake8-6.0.0 mccabe-0.7.0 mypy-0.991 mypy-extensions-1.0.0 pycodestyle-2.10.0 pyflakes-3.0.1 tomli-2.0.1 typing-extensions-4.6.3\n[0583c866-8694-46fa-9071-51a081a10c2c/build]   | \n[0583c866-8694-46fa-9071-51a081a10c2c/build]   | [notice] A new release of pip is available: 21.1.1 -> 23.1.2\n[0583c866-8694-46fa-9071-51a081a10c2c/build]   | [notice] To update, run: pip install --upgrade pip\n[0583c866-8694-46fa-9071-51a081a10c2c/build]   | Collecting pandas (from -r requirements.txt (line 1))\n[0583c866-8694-46fa-9071-51a081a10c2c/build]   |   Downloading pandas-2.0.2-cp38-cp38-manylinux_2_17_x86_64.manylinux2014_x86_64.whl (12.3 MB)\n[0583c866-8694-46fa-9071-51a081a10c2c/build]   |      \u2501\u2501\u2501\u2501\u2501\u2501\u2501\u2501\u2501\u2501\u2501\u2501\u2501\u2501\u2501\u2501\u2501\u2501\u2501\u2501\u2501\u2501\u2501\u2501\u2501\u2501\u2501\u2501\u2501\u2501\u2501\u2501\u2501\u2501\u2501\u2501\u2501\u2501\u2501\u2501 12.3/12.3 MB 22.8 MB/s eta 0:00:00\n[0583c866-8694-46fa-9071-51a081a10c2c/build]   | Collecting ffmpeg-progress-yield>=0.3.0 (from -r requirements.txt (line 2))\n[0583c866-8694-46fa-9071-51a081a10c2c/build]   |   Downloading ffmpeg_progress_yield-0.7.8-py2.py3-none-any.whl (10 kB)\n[0583c866-8694-46fa-9071-51a081a10c2c/build]   | Collecting tqdm (from -r requirements.txt (line 3))\n[0583c866-8694-46fa-9071-51a081a10c2c/build]   |   Downloading tqdm-4.65.0-py3-none-any.whl (77 kB)\n[0583c866-8694-46fa-9071-51a081a10c2c/build]   |      \u2501\u2501\u2501\u2501\u2501\u2501\u2501\u2501\u2501\u2501\u2501\u2501\u2501\u2501\u2501\u2501\u2501\u2501\u2501\u2501\u2501\u2501\u2501\u2501\u2501\u2501\u2501\u2501\u2501\u2501\u2501\u2501\u2501\u2501\u2501\u2501\u2501\u2501\u2501\u2501 77.1/77.1 kB 1.2 MB/s eta 0:00:00\n[0583c866-8694-46fa-9071-51a081a10c2c/build]   | Collecting python-dateutil>=2.8.2 (from pandas->-r requirements.txt (line 1))\n[0583c866-8694-46fa-9071-51a081a10c2c/build]   |   Downloading python_dateutil-2.8.2-py2.py3-none-any.whl (247 kB)\n[0583c866-8694-46fa-9071-51a081a10c2c/build]   |      \u2501\u2501\u2501\u2501\u2501\u2501\u2501\u2501\u2501\u2501\u2501\u2501\u2501\u2501\u2501\u2501\u2501\u2501\u2501\u2501\u2501\u2501\u2501\u2501\u2501\u2501\u2501\u2501\u2501\u2501\u2501\u2501\u2501\u2501\u2501\u2501\u2501\u2501\u2501 247.7/247.7 kB 4.8 MB/s eta 0:00:00\n[0583c866-8694-46fa-9071-51a081a10c2c/build]   | Collecting pytz>=2020.1 (from pandas->-r requirements.txt (line 1))\n[0583c866-8694-46fa-9071-51a081a10c2c/build]   |   Downloading pytz-2023.3-py2.py3-none-any.whl (502 kB)\n[0583c866-8694-46fa-9071-51a081a10c2c/build]   |      \u2501\u2501\u2501\u2501\u2501\u2501\u2501\u2501\u2501\u2501\u2501\u2501\u2501\u2501\u2501\u2501\u2501\u2501\u2501\u2501\u2501\u2501\u2501\u2501\u2501\u2501\u2501\u2501\u2501\u2501\u2501\u2501\u2501\u2501\u2501\u2501\u2501\u2501\u2501 502.3/502.3 kB 9.0 MB/s eta 0:00:00\n[0583c866-8694-46fa-9071-51a081a10c2c/build]   | Collecting tzdata>=2022.1 (from pandas->-r requirements.txt (line 1))\n[0583c866-8694-46fa-9071-51a081a10c2c/build]   |   Downloading tzdata-2023.3-py2.py3-none-any.whl (341 kB)\n[0583c866-8694-46fa-9071-51a081a10c2c/build]   |      \u2501\u2501\u2501\u2501\u2501\u2501\u2501\u2501\u2501\u2501\u2501\u2501\u2501\u2501\u2501\u2501\u2501\u2501\u2501\u2501\u2501\u2501\u2501\u2501\u2501\u2501\u2501\u2501\u2501\u2501\u2501\u2501\u2501\u2501\u2501\u2501\u2501\u2501\u2501 341.8/341.8 kB 5.7 MB/s eta 0:00:00\n[0583c866-8694-46fa-9071-51a081a10c2c/build]   | Collecting numpy>=1.20.3 (from pandas->-r requirements.txt (line 1))\n[0583c866-8694-46fa-9071-51a081a10c2c/build]   |   Downloading numpy-1.24.4-cp38-cp38-manylinux_2_17_x86_64.manylinux2014_x86_64.whl (17.3 MB)\n[0583c866-8694-46fa-9071-51a081a10c2c/build]   |      \u2501\u2501\u2501\u2501\u2501\u2501\u2501\u2501\u2501\u2501\u2501\u2501\u2501\u2501\u2501\u2501\u2501\u2501\u2501\u2501\u2501\u2501\u2501\u2501\u2501\u2501\u2501\u2501\u2501\u2501\u2501\u2501\u2501\u2501\u2501\u2501\u2501\u2501\u2501\u2501 17.3/17.3 MB 25.9 MB/s eta 0:00:00\n[0583c866-8694-46fa-9071-51a081a10c2c/build]   | Collecting six>=1.5 (from python-dateutil>=2.8.2->pandas->-r requirements.txt (line 1))\n[0583c866-8694-46fa-9071-51a081a10c2c/build]   |   Downloading six-1.16.0-py2.py3-none-any.whl (11 kB)\n[0583c866-8694-46fa-9071-51a081a10c2c/build]   | Installing collected packages: pytz, tzdata, tqdm, six, numpy, ffmpeg-progress-yield, python-dateutil, pandas\n[0583c866-8694-46fa-9071-51a081a10c2c/build]   | Successfully installed ffmpeg-progress-yield-0.7.8 numpy-1.24.4 pandas-2.0.2 python-dateutil-2.8.2 pytz-2023.3 six-1.16.0 tqdm-4.65.0 tzdata-2023.3\n[0583c866-8694-46fa-9071-51a081a10c2c/build]   | \n[0583c866-8694-46fa-9071-51a081a10c2c/build]   | [notice] A new release of pip is available: 21.1.1 -> 23.1.2\n[0583c866-8694-46fa-9071-51a081a10c2c/build]   | [notice] To update, run: pip install --upgrade pip\n[0583c866-8694-46fa-9071-51a081a10c2c/build]   | Collecting pytest>=6.2.2 (from -r requirements.dev.txt (line 1))\n[0583c866-8694-46fa-9071-51a081a10c2c/build]   |   Downloading pytest-7.4.0-py3-none-any.whl (323 kB)\n[0583c866-8694-46fa-9071-51a081a10c2c/build]   |      \u2501\u2501\u2501\u2501\u2501\u2501\u2501\u2501\u2501\u2501\u2501\u2501\u2501\u2501\u2501\u2501\u2501\u2501\u2501\u2501\u2501\u2501\u2501\u2501\u2501\u2501\u2501\u2501\u2501\u2501\u2501\u2501\u2501\u2501\u2501\u2501\u2501\u2501\u2501 323.6/323.6 kB 6.4 MB/s eta 0:00:00\n[0583c866-8694-46fa-9071-51a081a10c2c/build]   | Collecting iniconfig (from pytest>=6.2.2->-r requirements.dev.txt (line 1))\n[0583c866-8694-46fa-9071-51a081a10c2c/build]   |   Downloading iniconfig-2.0.0-py3-none-any.whl (5.9 kB)\n[0583c866-8694-46fa-9071-51a081a10c2c/build]   | Collecting packaging (from pytest>=6.2.2->-r requirements.dev.txt (line 1))\n[0583c866-8694-46fa-9071-51a081a10c2c/build]   |   Downloading packaging-23.1-py3-none-any.whl (48 kB)\n[0583c866-8694-46fa-9071-51a081a10c2c/build]   |      \u2501\u2501\u2501\u2501\u2501\u2501\u2501\u2501\u2501\u2501\u2501\u2501\u2501\u2501\u2501\u2501\u2501\u2501\u2501\u2501\u2501\u2501\u2501\u2501\u2501\u2501\u2501\u2501\u2501\u2501\u2501\u2501\u2501\u2501\u2501\u2501\u2501\u2501\u2501\u2501 48.9/48.9 kB 4.6 MB/s eta 0:00:00\n[0583c866-8694-46fa-9071-51a081a10c2c/build]   | Collecting pluggy<2.0,>=0.12 (from pytest>=6.2.2->-r requirements.dev.txt (line 1))\n[0583c866-8694-46fa-9071-51a081a10c2c/build]   |   Downloading pluggy-1.2.0-py3-none-any.whl (17 kB)\n[0583c866-8694-46fa-9071-51a081a10c2c/build]   | Collecting exceptiongroup>=1.0.0rc8 (from pytest>=6.2.2->-r requirements.dev.txt (line 1))\n[0583c866-8694-46fa-9071-51a081a10c2c/build]   |   Downloading exceptiongroup-1.1.1-py3-none-any.whl (14 kB)\n[0583c866-8694-46fa-9071-51a081a10c2c/build]   | Requirement already satisfied: tomli>=1.0.0 in /opt/hostedtoolcache/Python/3.8.11/x64/lib/python3.8/site-packages (from pytest>=6.2.2->-r requirements.dev.txt (line 1)) (2.0.1)\n[0583c866-8694-46fa-9071-51a081a10c2c/build]   | Installing collected packages: pluggy, packaging, iniconfig, exceptiongroup, pytest\n[0583c866-8694-46fa-9071-51a081a10c2c/build]   | Successfully installed exceptiongroup-1.1.1 iniconfig-2.0.0 packaging-23.1 pluggy-1.2.0 pytest-7.4.0\n[0583c866-8694-46fa-9071-51a081a10c2c/build]   | \n[0583c866-8694-46fa-9071-51a081a10c2c/build]   | [notice] A new release of pip is available: 21.1.1 -> 23.1.2\n[0583c866-8694-46fa-9071-51a081a10c2c/build]   | [notice] To update, run: pip install --upgrade pip\n[0583c866-8694-46fa-9071-51a081a10c2c/build]   \u2705  Success - Main Install dependencies\n[0583c866-8694-46fa-9071-51a081a10c2c/build] \u2b50 Run Main Lint with flake8\n[0583c866-8694-46fa-9071-51a081a10c2c/build]   \ud83d\udc33  docker exec cmd=[bash --noprofile --norc -e -o pipefail /var/run/act/workflow/5] user= workdir=\n[0583c866-8694-46fa-9071-51a081a10c2c/build]   | 0\n[0583c866-8694-46fa-9071-51a081a10c2c/build]   | ./ffmpeg_quality_metrics/ffmpeg_quality_metrics.py:147:128: E501 line too long (247 > 127 characters)\n[0583c866-8694-46fa-9071-51a081a10c2c/build]   | ./ffmpeg_quality_metrics/ffmpeg_quality_metrics.py:154:128: E501 line too long (132 > 127 characters)\n[0583c866-8694-46fa-9071-51a081a10c2c/build]   | ./ffmpeg_quality_metrics/ffmpeg_quality_metrics.py:318:128: E501 line too long (153 > 127 characters)\n[0583c866-8694-46fa-9071-51a081a10c2c/build]   | ./ffmpeg_quality_metrics/ffmpeg_quality_metrics.py:758:128: E501 line too long (200 > 127 characters)\n[0583c866-8694-46fa-9071-51a081a10c2c/build]   | 4\n[0583c866-8694-46fa-9071-51a081a10c2c/build]   \u2705  Success - Main Lint with flake8\n[0583c866-8694-46fa-9071-51a081a10c2c/build] \u2b50 Run Main Type check with mypy\n[0583c866-8694-46fa-9071-51a081a10c2c/build]   \ud83d\udc33  docker exec cmd=[bash --noprofile --norc -e -o pipefail /var/run/act/workflow/6] user= workdir=\n[0583c866-8694-46fa-9071-51a081a10c2c/build]   | Success: no issues found in 5 source files\n[0583c866-8694-46fa-9071-51a081a10c2c/build]   \u2705  Success - Main Type check with mypy\n[0583c866-8694-46fa-9071-51a081a10c2c/build] \u2b50 Run Main Test with pytest\n[0583c866-8694-46fa-9071-51a081a10c2c/build]   \ud83d\udc33  docker exec cmd=[bash --noprofile --norc -e -o pipefail /var/run/act/workflow/7] user= workdir=\n[0583c866-8694-46fa-9071-51a081a10c2c/build]   | ============================= test session starts ==============================\n[0583c866-8694-46fa-9071-51a081a10c2c/build]   | platform linux -- Python 3.8.11, pytest-7.4.0, pluggy-1.2.0\n[0583c866-8694-46fa-9071-51a081a10c2c/build]   | rootdir: /tmp/ad9c0f7e-1596-11ee-8a50-bb14de238602/slhck-ffmpeg-quality-metrics\n[0583c866-8694-46fa-9071-51a081a10c2c/build]   | collected 8 items\n[0583c866-8694-46fa-9071-51a081a10c2c/build]   | \n[0583c866-8694-46fa-9071-51a081a10c2c/build]   | test/test.py F.F.FF.F                                                    [100%]\n[0583c866-8694-46fa-9071-51a081a10c2c/build]   | \n[0583c866-8694-46fa-9071-51a081a10c2c/build]   | =================================== FAILURES ===================================\n[0583c866-8694-46fa-9071-51a081a10c2c/build]   | _____________________________ TestMetrics.test_all _____________________________\n[0583c866-8694-46fa-9071-51a081a10c2c/build]   | \n[0583c866-8694-46fa-9071-51a081a10c2c/build]   | self = <test.TestMetrics object at 0x7f6d917e5970>\n[0583c866-8694-46fa-9071-51a081a10c2c/build]   | \n[0583c866-8694-46fa-9071-51a081a10c2c/build]   |     def test_all(self):\n[0583c866-8694-46fa-9071-51a081a10c2c/build]   |         run_ret_1 = ffqm(REF, DIST).calculate(metrics=[\"ssim\"])\n[0583c866-8694-46fa-9071-51a081a10c2c/build]   |         run_ret_2 = ffqm(REF, DIST).calculate(metrics=[\"ssim\", \"psnr\"])\n[0583c866-8694-46fa-9071-51a081a10c2c/build]   |         run_ret_3 = ffqm(REF, DIST).calculate(metrics=[\"ssim\", \"psnr\", \"vmaf\"])\n[0583c866-8694-46fa-9071-51a081a10c2c/build]   |     \n[0583c866-8694-46fa-9071-51a081a10c2c/build]   |         assert len(run_ret_1) == 1\n[0583c866-8694-46fa-9071-51a081a10c2c/build]   |         assert len(run_ret_2) == 2\n[0583c866-8694-46fa-9071-51a081a10c2c/build]   |         assert len(run_ret_3) == 3\n[0583c866-8694-46fa-9071-51a081a10c2c/build]   |     \n[0583c866-8694-46fa-9071-51a081a10c2c/build]   |         for data in [run_ret_1, run_ret_2, run_ret_3]:\n[0583c866-8694-46fa-9071-51a081a10c2c/build]   |             for key, run_ret in data.items():\n[0583c866-8694-46fa-9071-51a081a10c2c/build]   | >               self._test_frame_by_frame(EXPECTED[key], run_ret)\n[0583c866-8694-46fa-9071-51a081a10c2c/build]   | \n[0583c866-8694-46fa-9071-51a081a10c2c/build]   | test/test.py:33: \n[0583c866-8694-46fa-9071-51a081a10c2c/build]   | _ _ _ _ _ _ _ _ _ _ _ _ _ _ _ _ _ _ _ _ _ _ _ _ _ _ _ _ _ _ _ _ _ _ _ _ _ _ _ _ \n[0583c866-8694-46fa-9071-51a081a10c2c/build]   | \n[0583c866-8694-46fa-9071-51a081a10c2c/build]   | self = <test.TestMetrics object at 0x7f6d917e5970>\n[0583c866-8694-46fa-9071-51a081a10c2c/build]   | expected = [{'mse_avg': 536.66, 'mse_u': 234.46, 'mse_v': 475.24, 'mse_y': 900.29, ...}, {'mse_avg': 535.24, 'mse_u': 239.35, 'mse_v': 469.35, 'mse_y': 897.04, ...}, {'mse_avg': 534.98, 'mse_u': 245.74, 'mse_v': 464.21, 'mse_y': 894.97, ...}]\n[0583c866-8694-46fa-9071-51a081a10c2c/build]   | run_ret = [{'mse_avg': 536.71, 'mse_u': 234.48, 'mse_v': 475.43, 'mse_y': 900.22, ...}, {'mse_avg': 535.29, 'mse_u': 239.4, 'mse_v': 469.49, 'mse_y': 896.98, ...}, {'mse_avg': 535.04, 'mse_u': 245.8, 'mse_v': 464.43, 'mse_y': 894.89, ...}]\n[0583c866-8694-46fa-9071-51a081a10c2c/build]   | \n[0583c866-8694-46fa-9071-51a081a10c2c/build]   |     def _test_frame_by_frame(self, expected, run_ret):\n[0583c866-8694-46fa-9071-51a081a10c2c/build]   |         for expected_frame, actual_frame in zip(expected, run_ret):\n[0583c866-8694-46fa-9071-51a081a10c2c/build]   |             for key in expected_frame.keys():\n[0583c866-8694-46fa-9071-51a081a10c2c/build]   | >               assert abs(expected_frame[key] - actual_frame[key]) < 0.02\n[0583c866-8694-46fa-9071-51a081a10c2c/build]   | E               assert 0.05000000000006821 < 0.02\n[0583c866-8694-46fa-9071-51a081a10c2c/build]   | E                +  where 0.05000000000006821 = abs((536.66 - 536.71))\n[0583c866-8694-46fa-9071-51a081a10c2c/build]   | \n[0583c866-8694-46fa-9071-51a081a10c2c/build]   | test/test.py:122: AssertionError\n[0583c866-8694-46fa-9071-51a081a10c2c/build]   | ____________________________ TestMetrics.test_psnr _____________________________\n[0583c866-8694-46fa-9071-51a081a10c2c/build]   | \n[0583c866-8694-46fa-9071-51a081a10c2c/build]   | self = <test.TestMetrics object at 0x7f6cee91f3a0>\n[0583c866-8694-46fa-9071-51a081a10c2c/build]   | \n[0583c866-8694-46fa-9071-51a081a10c2c/build]   |     def test_psnr(self):\n[0583c866-8694-46fa-9071-51a081a10c2c/build]   |         run_ret = ffqm(REF, DIST).calculate([\"psnr\"])[\"psnr\"]\n[0583c866-8694-46fa-9071-51a081a10c2c/build]   | >       self._test_frame_by_frame(EXPECTED[\"psnr\"], run_ret)\n[0583c866-8694-46fa-9071-51a081a10c2c/build]   | \n[0583c866-8694-46fa-9071-51a081a10c2c/build]   | test/test.py:41: \n[0583c866-8694-46fa-9071-51a081a10c2c/build]   | _ _ _ _ _ _ _ _ _ _ _ _ _ _ _ _ _ _ _ _ _ _ _ _ _ _ _ _ _ _ _ _ _ _ _ _ _ _ _ _ \n[0583c866-8694-46fa-9071-51a081a10c2c/build]   | \n[0583c866-8694-46fa-9071-51a081a10c2c/build]   | self = <test.TestMetrics object at 0x7f6cee91f3a0>\n[0583c866-8694-46fa-9071-51a081a10c2c/build]   | expected = [{'mse_avg': 536.66, 'mse_u': 234.46, 'mse_v': 475.24, 'mse_y': 900.29, ...}, {'mse_avg': 535.24, 'mse_u': 239.35, 'mse_v': 469.35, 'mse_y': 897.04, ...}, {'mse_avg': 534.98, 'mse_u': 245.74, 'mse_v': 464.21, 'mse_y': 894.97, ...}]\n[0583c866-8694-46fa-9071-51a081a10c2c/build]   | run_ret = [{'mse_avg': 536.71, 'mse_u': 234.48, 'mse_v': 475.43, 'mse_y': 900.22, ...}, {'mse_avg': 535.29, 'mse_u': 239.4, 'mse_v': 469.49, 'mse_y': 896.98, ...}, {'mse_avg': 535.04, 'mse_u': 245.8, 'mse_v': 464.43, 'mse_y': 894.89, ...}]\n[0583c866-8694-46fa-9071-51a081a10c2c/build]   | \n[0583c866-8694-46fa-9071-51a081a10c2c/build]   |     def _test_frame_by_frame(self, expected, run_ret):\n[0583c866-8694-46fa-9071-51a081a10c2c/build]   |         for expected_frame, actual_frame in zip(expected, run_ret):\n[0583c866-8694-46fa-9071-51a081a10c2c/build]   |             for key in expected_frame.keys():\n[0583c866-8694-46fa-9071-51a081a10c2c/build]   | >               assert abs(expected_frame[key] - actual_frame[key]) < 0.02\n[0583c866-8694-46fa-9071-51a081a10c2c/build]   | E               assert 0.05000000000006821 < 0.02\n[0583c866-8694-46fa-9071-51a081a10c2c/build]   | E                +  where 0.05000000000006821 = abs((536.66 - 536.71))\n[0583c866-8694-46fa-9071-51a081a10c2c/build]   | \n[0583c866-8694-46fa-9071-51a081a10c2c/build]   | test/test.py:122: AssertionError\n[0583c866-8694-46fa-9071-51a081a10c2c/build]   | ________________________ TestMetrics.test_vmaf_features ________________________\n[0583c866-8694-46fa-9071-51a081a10c2c/build]   | \n[0583c866-8694-46fa-9071-51a081a10c2c/build]   | self = <test.TestMetrics object at 0x7f6cee91f5e0>\n[0583c866-8694-46fa-9071-51a081a10c2c/build]   | \n[0583c866-8694-46fa-9071-51a081a10c2c/build]   |     def test_vmaf_features(self):\n[0583c866-8694-46fa-9071-51a081a10c2c/build]   |         vmaf_opts = {\n[0583c866-8694-46fa-9071-51a081a10c2c/build]   |             \"features\": [\n[0583c866-8694-46fa-9071-51a081a10c2c/build]   |                 \"cambi\",\n[0583c866-8694-46fa-9071-51a081a10c2c/build]   |                 \"ciede\",\n[0583c866-8694-46fa-9071-51a081a10c2c/build]   |                 \"vif\",\n[0583c866-8694-46fa-9071-51a081a10c2c/build]   |                 \"adm\",\n[0583c866-8694-46fa-9071-51a081a10c2c/build]   |                 \"motion\",\n[0583c866-8694-46fa-9071-51a081a10c2c/build]   |                 \"float_ssim\",\n[0583c866-8694-46fa-9071-51a081a10c2c/build]   |                 \"float_ms_ssim\",\n[0583c866-8694-46fa-9071-51a081a10c2c/build]   |             ]\n[0583c866-8694-46fa-9071-51a081a10c2c/build]   |         }\n[0583c866-8694-46fa-9071-51a081a10c2c/build]   | >       run_ret = ffqm(REF, DIST).calculate(\n[0583c866-8694-46fa-9071-51a081a10c2c/build]   |             [\"vmaf\"], vmaf_options=cast(VmafOptions, vmaf_opts)\n[0583c866-8694-46fa-9071-51a081a10c2c/build]   |         )[\"vmaf\"]\n[0583c866-8694-46fa-9071-51a081a10c2c/build]   | \n[0583c866-8694-46fa-9071-51a081a10c2c/build]   | test/test.py:62: \n[0583c866-8694-46fa-9071-51a081a10c2c/build]   | _ _ _ _ _ _ _ _ _ _ _ _ _ _ _ _ _ _ _ _ _ _ _ _ _ _ _ _ _ _ _ _ _ _ _ _ _ _ _ _ \n[0583c866-8694-46fa-9071-51a081a10c2c/build]   | ffmpeg_quality_metrics/ffmpeg_quality_metrics.py:386: in calculate\n[0583c866-8694-46fa-9071-51a081a10c2c/build]   |     raise e\n[0583c866-8694-46fa-9071-51a081a10c2c/build]   | ffmpeg_quality_metrics/ffmpeg_quality_metrics.py:379: in calculate\n[0583c866-8694-46fa-9071-51a081a10c2c/build]   |     output = self._run_ffmpeg_command(filter_chains, desc=\", \".join(metrics))\n[0583c866-8694-46fa-9071-51a081a10c2c/build]   | ffmpeg_quality_metrics/ffmpeg_quality_metrics.py:595: in _run_ffmpeg_command\n[0583c866-8694-46fa-9071-51a081a10c2c/build]   |     _, stderr = run_command(cmd, dry_run=self.dry_run)\n[0583c866-8694-46fa-9071-51a081a10c2c/build]   | _ _ _ _ _ _ _ _ _ _ _ _ _ _ _ _ _ _ _ _ _ _ _ _ _ _ _ _ _ _ _ _ _ _ _ _ _ _ _ _ \n[0583c866-8694-46fa-9071-51a081a10c2c/build]   | \n[0583c866-8694-46fa-9071-51a081a10c2c/build]   | cmd = ['ffmpeg', '-nostdin', '-nostats', '-y', '-threads', '0', ...]\n[0583c866-8694-46fa-9071-51a081a10c2c/build]   | dry_run = False, allow_error = False\n[0583c866-8694-46fa-9071-51a081a10c2c/build]   | \n[0583c866-8694-46fa-9071-51a081a10c2c/build]   |     def run_command(\n[0583c866-8694-46fa-9071-51a081a10c2c/build]   |         cmd, dry_run: bool = False, allow_error: bool = False\n[0583c866-8694-46fa-9071-51a081a10c2c/build]   |     ) -> Tuple[str, str]:\n[0583c866-8694-46fa-9071-51a081a10c2c/build]   |         \"\"\"\n[0583c866-8694-46fa-9071-51a081a10c2c/build]   |         Run a command directly\n[0583c866-8694-46fa-9071-51a081a10c2c/build]   |         \"\"\"\n[0583c866-8694-46fa-9071-51a081a10c2c/build]   |         logger.debug(quoted_cmd(cmd))\n[0583c866-8694-46fa-9071-51a081a10c2c/build]   |         if dry_run:\n[0583c866-8694-46fa-9071-51a081a10c2c/build]   |             return \"\", \"\"\n[0583c866-8694-46fa-9071-51a081a10c2c/build]   |     \n[0583c866-8694-46fa-9071-51a081a10c2c/build]   |         process = subprocess.Popen(cmd, stdout=subprocess.PIPE, stderr=subprocess.PIPE)\n[0583c866-8694-46fa-9071-51a081a10c2c/build]   |         stdout, stderr = process.communicate()\n[0583c866-8694-46fa-9071-51a081a10c2c/build]   |     \n[0583c866-8694-46fa-9071-51a081a10c2c/build]   |         if allow_error or process.returncode == 0:\n[0583c866-8694-46fa-9071-51a081a10c2c/build]   |             return stdout.decode(\"utf-8\"), stderr.decode(\"utf-8\")\n[0583c866-8694-46fa-9071-51a081a10c2c/build]   |         else:\n[0583c866-8694-46fa-9071-51a081a10c2c/build]   | >           raise RuntimeError(\n[0583c866-8694-46fa-9071-51a081a10c2c/build]   |                 f\"error running command: {quoted_cmd(cmd)}\\n{stdout.decode('utf-8')}\\n{stderr.decode('utf-8')}\"\n[0583c866-8694-46fa-9071-51a081a10c2c/build]   |             )\n[0583c866-8694-46fa-9071-51a081a10c2c/build]   | E           RuntimeError: error running command: ffmpeg -nostdin -nostats -y -threads 0 -r 25.0 -i /tmp/ad9c0f7e-1596-11ee-8a50-bb14de238602/slhck-ffmpeg-quality-metrics/test/ref-1280x720.mkv -r 25.0 -i /tmp/ad9c0f7e-1596-11ee-8a50-bb14de238602/slhck-ffmpeg-quality-metrics/test/dist-854x480.mkv -filter_complex '[1][0]scale2ref=flags=bicubic[dist][ref];[dist]settb=AVTB,setpts=PTS-STARTPTS[distpts];[ref]settb=AVTB,setpts=PTS-STARTPTS[refpts];[distpts][refpts]libvmaf='\"'\"'model=path=/tmp/ad9c0f7e-1596-11ee-8a50-bb14de238602/slhck-ffmpeg-quality-metrics/ffmpeg_quality_metrics/vmaf_models/vmaf_v0.6.1.json:log_path=/tmp/ffmpeg_quality_metrics_libvmaf_ref-1280x720.mkv_dist-854x480.mkv.json:log_fmt=json:n_threads=0:n_subsample=1:feature=name=cambi|name=ciede|name=vif|name=adm|name=motion|name=float_ssim|name=float_ms_ssim'\"'\"'' -an -f null /dev/null\n[0583c866-8694-46fa-9071-51a081a10c2c/build]   | E           \n[0583c866-8694-46fa-9071-51a081a10c2c/build]   | E           ffmpeg version 6.0-static https://johnvansickle.com/ffmpeg/  Copyright (c) 2000-2023 the FFmpeg developers\n[0583c866-8694-46fa-9071-51a081a10c2c/build]   | E             built with gcc 8 (Debian 8.3.0-6)\n[0583c866-8694-46fa-9071-51a081a10c2c/build]   | E             configuration: --enable-gpl --enable-version3 --enable-static --disable-debug --disable-ffplay --disable-indev=sndio --disable-outdev=sndio --cc=gcc --enable-fontconfig --enable-frei0r --enable-gnutls --enable-gmp --enable-libgme --enable-gray --enable-libaom --enable-libfribidi --enable-libass --enable-libvmaf --enable-libfreetype --enable-libmp3lame --enable-libopencore-amrnb --enable-libopencore-amrwb --enable-libopenjpeg --enable-librubberband --enable-libsoxr --enable-libspeex --enable-libsrt --enable-libvorbis --enable-libopus --enable-libtheora --enable-libvidstab --enable-libvo-amrwbenc --enable-libvpx --enable-libwebp --enable-libx264 --enable-libx265 --enable-libxml2 --enable-libdav1d --enable-libxvid --enable-libzvbi --enable-libzimg\n[0583c866-8694-46fa-9071-51a081a10c2c/build]   | E             libavutil      58.  2.100 / 58.  2.100\n[0583c866-8694-46fa-9071-51a081a10c2c/build]   | E             libavcodec     60.  3.100 / 60.  3.100\n[0583c866-8694-46fa-9071-51a081a10c2c/build]   | E             libavformat    60.  3.100 / 60.  3.100\n[0583c866-8694-46fa-9071-51a081a10c2c/build]   | E             libavdevice    60.  1.100 / 60.  1.100\n[0583c866-8694-46fa-9071-51a081a10c2c/build]   | E             libavfilter     9.  3.100 /  9.  3.100\n[0583c866-8694-46fa-9071-51a081a10c2c/build]   | E             libswscale      7.  1.100 /  7.  1.100\n[0583c866-8694-46fa-9071-51a081a10c2c/build]   | E             libswresample   4. 10.100 /  4. 10.100\n[0583c866-8694-46fa-9071-51a081a10c2c/build]   | E             libpostproc    57.  1.100 / 57.  1.100\n[0583c866-8694-46fa-9071-51a081a10c2c/build]   | E           Input #0, matroska,webm, from '/tmp/ad9c0f7e-1596-11ee-8a50-bb14de238602/slhck-ffmpeg-quality-metrics/test/ref-1280x720.mkv':\n[0583c866-8694-46fa-9071-51a081a10c2c/build]   | E             Metadata:\n[0583c866-8694-46fa-9071-51a081a10c2c/build]   | E               ENCODER         : Lavf58.20.100\n[0583c866-8694-46fa-9071-51a081a10c2c/build]   | E             Duration: 00:00:00.12, bitrate: 526 kb/s\n[0583c866-8694-46fa-9071-51a081a10c2c/build]   | E             Stream #0:0: Video: h264 (High 4:4:4 Predictive), yuv444p(progressive), 1280x720 [SAR 1:1 DAR 16:9], 25 fps, 25 tbr, 1k tbn (default)\n[0583c866-8694-46fa-9071-51a081a10c2c/build]   | E               Metadata:\n[0583c866-8694-46fa-9071-51a081a10c2c/build]   | E                 ENCODER         : Lavc58.35.100 libx264\n[0583c866-8694-46fa-9071-51a081a10c2c/build]   | E                 DURATION        : 00:00:00.120000000\n[0583c866-8694-46fa-9071-51a081a10c2c/build]   | E           Input #1, matroska,webm, from '/tmp/ad9c0f7e-1596-11ee-8a50-bb14de238602/slhck-ffmpeg-quality-metrics/test/dist-854x480.mkv':\n[0583c866-8694-46fa-9071-51a081a10c2c/build]   | E             Metadata:\n[0583c866-8694-46fa-9071-51a081a10c2c/build]   | E               ENCODER         : Lavf58.20.100\n[0583c866-8694-46fa-9071-51a081a10c2c/build]   | E             Duration: 00:00:00.12, bitrate: 444 kb/s\n[0583c866-8694-46fa-9071-51a081a10c2c/build]   | E             Stream #1:0: Video: h264 (High 4:4:4 Predictive), yuv444p(progressive), 854x480 [SAR 1:1 DAR 427:240], 25 fps, 25 tbr, 1k tbn (default)\n[0583c866-8694-46fa-9071-51a081a10c2c/build]   | E               Metadata:\n[0583c866-8694-46fa-9071-51a081a10c2c/build]   | E                 ENCODER         : Lavc58.35.100 libx264\n[0583c866-8694-46fa-9071-51a081a10c2c/build]   | E                 DURATION        : 00:00:00.120000000\n[0583c866-8694-46fa-9071-51a081a10c2c/build]   | E           Stream mapping:\n[0583c866-8694-46fa-9071-51a081a10c2c/build]   | E             Stream #0:0 (h264) -> scale2ref\n[0583c866-8694-46fa-9071-51a081a10c2c/build]   | E             Stream #1:0 (h264) -> scale2ref\n[0583c866-8694-46fa-9071-51a081a10c2c/build]   | E             libvmaf:default -> Stream #0:0 (wrapped_avframe)\n[0583c866-8694-46fa-9071-51a081a10c2c/build]   | E           Output #0, null, to '/dev/null':\n[0583c866-8694-46fa-9071-51a081a10c2c/build]   | E             Metadata:\n[0583c866-8694-46fa-9071-51a081a10c2c/build]   | E               encoder         : Lavf60.3.100\n[0583c866-8694-46fa-9071-51a081a10c2c/build]   | E             Stream #0:0: Video: wrapped_avframe, yuv444p(tv, progressive), 1280x720 [SAR 1281:1280 DAR 427:240], q=2-31, 200 kb/s, 25 fps, 25 tbn\n[0583c866-8694-46fa-9071-51a081a10c2c/build]   | E               Metadata:\n[0583c866-8694-46fa-9071-51a081a10c2c/build]   | E                 encoder         : Lavc60.3.100 wrapped_avframe\n[0583c866-8694-46fa-9071-51a081a10c2c/build]   | E           frame=    3 fps=0.7 q=-0.0 Lsize=N/A time=00:00:00.08 bitrate=N/A speed=0.0179x    \n[0583c866-8694-46fa-9071-51a081a10c2c/build]   | E           video:1kB audio:0kB subtitle:0kB other streams:0kB global headers:0kB muxing overhead: unknown\n[0583c866-8694-46fa-9071-51a081a10c2c/build]   | E           [Parsed_libvmaf_5 @ 0x863eec0] VMAF score: 14.258492\n[0583c866-8694-46fa-9071-51a081a10c2c/build]   | E           corrupted double-linked list\n[0583c866-8694-46fa-9071-51a081a10c2c/build]   | \n[0583c866-8694-46fa-9071-51a081a10c2c/build]   | ffmpeg_quality_metrics/utils.py:102: RuntimeError\n[0583c866-8694-46fa-9071-51a081a10c2c/build]   | ____________________ TestMetrics.test_vmaf_feature_options _____________________\n[0583c866-8694-46fa-9071-51a081a10c2c/build]   | \n[0583c866-8694-46fa-9071-51a081a10c2c/build]   | self = <test.TestMetrics object at 0x7f6cee91f700>\n[0583c866-8694-46fa-9071-51a081a10c2c/build]   | \n[0583c866-8694-46fa-9071-51a081a10c2c/build]   |     def test_vmaf_feature_options(self):\n[0583c866-8694-46fa-9071-51a081a10c2c/build]   |         vmaf_opts = {\n[0583c866-8694-46fa-9071-51a081a10c2c/build]   |             \"features\": [\n[0583c866-8694-46fa-9071-51a081a10c2c/build]   |                 \"cambi:full_ref=true\",\n[0583c866-8694-46fa-9071-51a081a10c2c/build]   |             ]\n[0583c866-8694-46fa-9071-51a081a10c2c/build]   |         }\n[0583c866-8694-46fa-9071-51a081a10c2c/build]   |         run_ret = ffqm(REF, DIST).calculate(\n[0583c866-8694-46fa-9071-51a081a10c2c/build]   |             [\"vmaf\"], vmaf_options=cast(VmafOptions, vmaf_opts)\n[0583c866-8694-46fa-9071-51a081a10c2c/build]   |         )[\"vmaf\"]\n[0583c866-8694-46fa-9071-51a081a10c2c/build]   |     \n[0583c866-8694-46fa-9071-51a081a10c2c/build]   | >       assert list(run_ret[0].keys()) == [\n[0583c866-8694-46fa-9071-51a081a10c2c/build]   |             \"integer_adm2\",\n[0583c866-8694-46fa-9071-51a081a10c2c/build]   |             \"integer_adm_scale0\",\n[0583c866-8694-46fa-9071-51a081a10c2c/build]   |             \"integer_adm_scale1\",\n[0583c866-8694-46fa-9071-51a081a10c2c/build]   |             \"integer_adm_scale2\",\n[0583c866-8694-46fa-9071-51a081a10c2c/build]   |             \"integer_adm_scale3\",\n[0583c866-8694-46fa-9071-51a081a10c2c/build]   |             \"integer_motion2\",\n[0583c866-8694-46fa-9071-51a081a10c2c/build]   |             \"integer_motion\",\n[0583c866-8694-46fa-9071-51a081a10c2c/build]   |             \"integer_vif_scale0\",\n[0583c866-8694-46fa-9071-51a081a10c2c/build]   |             \"integer_vif_scale1\",\n[0583c866-8694-46fa-9071-51a081a10c2c/build]   |             \"integer_vif_scale2\",\n[0583c866-8694-46fa-9071-51a081a10c2c/build]   |             \"integer_vif_scale3\",\n[0583c866-8694-46fa-9071-51a081a10c2c/build]   |             \"cambi\",\n[0583c866-8694-46fa-9071-51a081a10c2c/build]   |             \"cambi_source\",\n[0583c866-8694-46fa-9071-51a081a10c2c/build]   |             \"cambi_full_reference\",\n[0583c866-8694-46fa-9071-51a081a10c2c/build]   |             \"vmaf\",\n[0583c866-8694-46fa-9071-51a081a10c2c/build]   |             \"n\",\n[0583c866-8694-46fa-9071-51a081a10c2c/build]   |         ]\n[0583c866-8694-46fa-9071-51a081a10c2c/build]   | E       AssertionError: assert ['integer_adm...motion2', ...] == ['integer_adm...motion2', ...]\n[0583c866-8694-46fa-9071-51a081a10c2c/build]   | E         At index 12 diff: 'vmaf' != 'cambi_source'\n[0583c866-8694-46fa-9071-51a081a10c2c/build]   | E         Right contains 2 more items, first extra item: 'vmaf'\n[0583c866-8694-46fa-9071-51a081a10c2c/build]   | E         Full diff:\n[0583c866-8694-46fa-9071-51a081a10c2c/build]   | E           [\n[0583c866-8694-46fa-9071-51a081a10c2c/build]   | E            'integer_adm2',\n[0583c866-8694-46fa-9071-51a081a10c2c/build]   | E            'integer_adm_scale0',\n[0583c866-8694-46fa-9071-51a081a10c2c/build]   | E            'integer_adm_scale1',\n[0583c866-8694-46fa-9071-51a081a10c2c/build]   | E            'integer_adm_scale2',\n[0583c866-8694-46fa-9071-51a081a10c2c/build]   | E            'integer_adm_scale3',\n[0583c866-8694-46fa-9071-51a081a10c2c/build]   | E            'integer_motion2',\n[0583c866-8694-46fa-9071-51a081a10c2c/build]   | E            'integer_motion',\n[0583c866-8694-46fa-9071-51a081a10c2c/build]   | E            'integer_vif_scale0',\n[0583c866-8694-46fa-9071-51a081a10c2c/build]   | E            'integer_vif_scale1',\n[0583c866-8694-46fa-9071-51a081a10c2c/build]   | E            'integer_vif_scale2',\n[0583c866-8694-46fa-9071-51a081a10c2c/build]   | E            'integer_vif_scale3',\n[0583c866-8694-46fa-9071-51a081a10c2c/build]   | E            'cambi',\n[0583c866-8694-46fa-9071-51a081a10c2c/build]   | E         -  'cambi_source',\n[0583c866-8694-46fa-9071-51a081a10c2c/build]   | E         -  'cambi_full_reference',\n[0583c866-8694-46fa-9071-51a081a10c2c/build]   | E            'vmaf',\n[0583c866-8694-46fa-9071-51a081a10c2c/build]   | E            'n',\n[0583c866-8694-46fa-9071-51a081a10c2c/build]   | E           ]\n[0583c866-8694-46fa-9071-51a081a10c2c/build]   | \n[0583c866-8694-46fa-9071-51a081a10c2c/build]   | test/test.py:96: AssertionError\n[0583c866-8694-46fa-9071-51a081a10c2c/build]   | ___________________________ TestMetrics.test_global ____________________________\n[0583c866-8694-46fa-9071-51a081a10c2c/build]   | \n[0583c866-8694-46fa-9071-51a081a10c2c/build]   | self = <test.TestMetrics object at 0x7f6cee91f940>\n[0583c866-8694-46fa-9071-51a081a10c2c/build]   | \n[0583c866-8694-46fa-9071-51a081a10c2c/build]   |     def test_global(self):\n[0583c866-8694-46fa-9071-51a081a10c2c/build]   |         f = ffqm(REF, DIST)\n[0583c866-8694-46fa-9071-51a081a10c2c/build]   |         f.calculate(metrics=[\"ssim\", \"psnr\", \"vmaf\", \"vif\"])\n[0583c866-8694-46fa-9071-51a081a10c2c/build]   |         run_ret = f.get_global_stats()\n[0583c866-8694-46fa-9071-51a081a10c2c/build]   |         for key in GLOBAL.keys():\n[0583c866-8694-46fa-9071-51a081a10c2c/build]   |             for subkey in GLOBAL[key].keys():\n[0583c866-8694-46fa-9071-51a081a10c2c/build]   |                 print(key, subkey)\n[0583c866-8694-46fa-9071-51a081a10c2c/build]   |                 for metric in GLOBAL[key][subkey].keys():\n[0583c866-8694-46fa-9071-51a081a10c2c/build]   | >                   assert (\n[0583c866-8694-46fa-9071-51a081a10c2c/build]   |                         abs(GLOBAL[key][subkey][metric] - run_ret[key][subkey][metric])\n[0583c866-8694-46fa-9071-51a081a10c2c/build]   |                         < 0.02\n[0583c866-8694-46fa-9071-51a081a10c2c/build]   |                     )\n[0583c866-8694-46fa-9071-51a081a10c2c/build]   | E                   assert 0.05299999999999727 < 0.02\n[0583c866-8694-46fa-9071-51a081a10c2c/build]   | E                    +  where 0.05299999999999727 = abs((535.627 - 535.68))\n[0583c866-8694-46fa-9071-51a081a10c2c/build]   | \n[0583c866-8694-46fa-9071-51a081a10c2c/build]   | test/test.py:132: AssertionError\n[0583c866-8694-46fa-9071-51a081a10c2c/build]   | ----------------------------- Captured stdout call -----------------------------\n[0583c866-8694-46fa-9071-51a081a10c2c/build]   | vmaf integer_adm2\n[0583c866-8694-46fa-9071-51a081a10c2c/build]   | vmaf integer_adm_scale0\n[0583c866-8694-46fa-9071-51a081a10c2c/build]   | vmaf integer_adm_scale1\n[0583c866-8694-46fa-9071-51a081a10c2c/build]   | vmaf integer_adm_scale2\n[0583c866-8694-46fa-9071-51a081a10c2c/build]   | vmaf integer_adm_scale3\n[0583c866-8694-46fa-9071-51a081a10c2c/build]   | vmaf integer_motion2\n[0583c866-8694-46fa-9071-51a081a10c2c/build]   | vmaf integer_motion\n[0583c866-8694-46fa-9071-51a081a10c2c/build]   | vmaf integer_vif_scale0\n[0583c866-8694-46fa-9071-51a081a10c2c/build]   | vmaf integer_vif_scale1\n[0583c866-8694-46fa-9071-51a081a10c2c/build]   | vmaf integer_vif_scale2\n[0583c866-8694-46fa-9071-51a081a10c2c/build]   | vmaf integer_vif_scale3\n[0583c866-8694-46fa-9071-51a081a10c2c/build]   | vmaf vmaf\n[0583c866-8694-46fa-9071-51a081a10c2c/build]   | psnr mse_avg\n[0583c866-8694-46fa-9071-51a081a10c2c/build]   | - generated xml file: /tmp/ad9c0f7e-1596-11ee-8a50-bb14de238602/slhck-ffmpeg-quality-metrics/report.xml -\n[0583c866-8694-46fa-9071-51a081a10c2c/build]   | =========================== short test summary info ============================\n[0583c866-8694-46fa-9071-51a081a10c2c/build]   | FAILED test/test.py::TestMetrics::test_all - assert 0.05000000000006821 < 0.02\n[0583c866-8694-46fa-9071-51a081a10c2c/build]   |  +  where 0.05000000000006821 = abs((536.66 - 536.71))\n[0583c866-8694-46fa-9071-51a081a10c2c/build]   | FAILED test/test.py::TestMetrics::test_psnr - assert 0.05000000000006821 < 0.02\n[0583c866-8694-46fa-9071-51a081a10c2c/build]   |  +  where 0.05000000000006821 = abs((536.66 - 536.71))\n[0583c866-8694-46fa-9071-51a081a10c2c/build]   | FAILED test/test.py::TestMetrics::test_vmaf_features - RuntimeError: error running command: ffmpeg -nostdin -nostats -y -threads 0 -r 25.0 -i /tmp/ad9c0f7e-1596-11ee-8a50-bb14de238602/slhck-ffmpeg-quality-metrics/test/ref-1280x720.mkv -r 25.0 -i /tmp/ad9c0f7e-1596-11ee-8a50-bb14de238602/slhck-ffmpeg-quality-metrics/test/dist-854x480.mkv -filter_complex '[1][0]scale2ref=flags=bicubic[dist][ref];[dist]settb=AVTB,setpts=PTS-STARTPTS[distpts];[ref]settb=AVTB,setpts=PTS-STARTPTS[refpts];[distpts][refpts]libvmaf='\"'\"'model=path=/tmp/ad9c0f7e-1596-11ee-8a50-bb14de238602/slhck-ffmpeg-quality-metrics/ffmpeg_quality_metrics/vmaf_models/vmaf_v0.6.1.json:log_path=/tmp/ffmpeg_quality_metrics_libvmaf_ref-1280x720.mkv_dist-854x480.mkv.json:log_fmt=json:n_threads=0:n_subsample=1:feature=name=cambi|name=ciede|name=vif|name=adm|name=motion|name=float_ssim|name=float_ms_ssim'\"'\"'' -an -f null /dev/null\n[0583c866-8694-46fa-9071-51a081a10c2c/build]   | \n[0583c866-8694-46fa-9071-51a081a10c2c/build]   | ffmpeg version 6.0-static https://johnvansickle.com/ffmpeg/  Copyright (c) 2000-2023 the FFmpeg developers\n[0583c866-8694-46fa-9071-51a081a10c2c/build]   |   built with gcc 8 (Debian 8.3.0-6)\n[0583c866-8694-46fa-9071-51a081a10c2c/build]   |   configuration: --enable-gpl --enable-version3 --enable-static --disable-debug --disable-ffplay --disable-indev=sndio --disable-outdev=sndio --cc=gcc --enable-fontconfig --enable-frei0r --enable-gnutls --enable-gmp --enable-libgme --enable-gray --enable-libaom --enable-libfribidi --enable-libass --enable-libvmaf --enable-libfreetype --enable-libmp3lame --enable-libopencore-amrnb --enable-libopencore-amrwb --enable-libopenjpeg --enable-librubberband --enable-libsoxr --enable-libspeex --enable-libsrt --enable-libvorbis --enable-libopus --enable-libtheora --enable-libvidstab --enable-libvo-amrwbenc --enable-libvpx --enable-libwebp --enable-libx264 --enable-libx265 --enable-libxml2 --enable-libdav1d --enable-libxvid --enable-libzvbi --enable-libzimg\n[0583c866-8694-46fa-9071-51a081a10c2c/build]   |   libavutil      58.  2.100 / 58.  2.100\n[0583c866-8694-46fa-9071-51a081a10c2c/build]   |   libavcodec     60.  3.100 / 60.  3.100\n[0583c866-8694-46fa-9071-51a081a10c2c/build]   |   libavformat    60.  3.100 / 60.  3.100\n[0583c866-8694-46fa-9071-51a081a10c2c/build]   |   libavdevice    60.  1.100 / 60.  1.100\n[0583c866-8694-46fa-9071-51a081a10c2c/build]   |   libavfilter     9.  3.100 /  9.  3.100\n[0583c866-8694-46fa-9071-51a081a10c2c/build]   |   libswscale      7.  1.100 /  7.  1.100\n[0583c866-8694-46fa-9071-51a081a10c2c/build]   |   libswresample   4. 10.100 /  4. 10.100\n[0583c866-8694-46fa-9071-51a081a10c2c/build]   |   libpostproc    57.  1.100 / 57.  1.100\n[0583c866-8694-46fa-9071-51a081a10c2c/build]   | Input #0, matroska,webm, from '/tmp/ad9c0f7e-1596-11ee-8a50-bb14de238602/slhck-ffmpeg-quality-metrics/test/ref-1280x720.mkv':\n[0583c866-8694-46fa-9071-51a081a10c2c/build]   |   Metadata:\n[0583c866-8694-46fa-9071-51a081a10c2c/build]   |     ENCODER         : Lavf58.20.100\n[0583c866-8694-46fa-9071-51a081a10c2c/build]   |   Duration: 00:00:00.12, bitrate: 526 kb/s\n[0583c866-8694-46fa-9071-51a081a10c2c/build]   |   Stream #0:0: Video: h264 (High 4:4:4 Predictive), yuv444p(progressive), 1280x720 [SAR 1:1 DAR 16:9], 25 fps, 25 tbr, 1k tbn (default)\n[0583c866-8694-46fa-9071-51a081a10c2c/build]   |     Metadata:\n[0583c866-8694-46fa-9071-51a081a10c2c/build]   |       ENCODER         : Lavc58.35.100 libx264\n[0583c866-8694-46fa-9071-51a081a10c2c/build]   |       DURATION        : 00:00:00.120000000\n[0583c866-8694-46fa-9071-51a081a10c2c/build]   | Input #1, matroska,webm, from '/tmp/ad9c0f7e-1596-11ee-8a50-bb14de238602/slhck-ffmpeg-quality-metrics/test/dist-854x480.mkv':\n[0583c866-8694-46fa-9071-51a081a10c2c/build]   |   Metadata:\n[0583c866-8694-46fa-9071-51a081a10c2c/build]   |     ENCODER         : Lavf58.20.100\n[0583c866-8694-46fa-9071-51a081a10c2c/build]   |   Duration: 00:00:00.12, bitrate: 444 kb/s\n[0583c866-8694-46fa-9071-51a081a10c2c/build]   |   Stream #1:0: Video: h264 (High 4:4:4 Predictive), yuv444p(progressive), 854x480 [SAR 1:1 DAR 427:240], 25 fps, 25 tbr, 1k tbn (default)\n[0583c866-8694-46fa-9071-51a081a10c2c/build]   |     Metadata:\n[0583c866-8694-46fa-9071-51a081a10c2c/build]   |       ENCODER         : Lavc58.35.100 libx264\n[0583c866-8694-46fa-9071-51a081a10c2c/build]   |       DURATION        : 00:00:00.120000000\n[0583c866-8694-46fa-9071-51a081a10c2c/build]   | Stream mapping:\n[0583c866-8694-46fa-9071-51a081a10c2c/build]   |   Stream #0:0 (h264) -> scale2ref\n[0583c866-8694-46fa-9071-51a081a10c2c/build]   |   Stream #1:0 (h264) -> scale2ref\n[0583c866-8694-46fa-9071-51a081a10c2c/build]   |   libvmaf:default -> Stream #0:0 (wrapped_avframe)\n[0583c866-8694-46fa-9071-51a081a10c2c/build]   | Output #0, null, to '/dev/null':\n[0583c866-8694-46fa-9071-51a081a10c2c/build]   |   Metadata:\n[0583c866-8694-46fa-9071-51a081a10c2c/build]   |     encoder         : Lavf60.3.100\n[0583c866-8694-46fa-9071-51a081a10c2c/build]   |   Stream #0:0: Video: wrapped_avframe, yuv444p(tv, progressive), 1280x720 [SAR 1281:1280 DAR 427:240], q=2-31, 200 kb/s, 25 fps, 25 tbn\n[0583c866-8694-46fa-9071-51a081a10c2c/build]   |     Metadata:\n[0583c866-8694-46fa-9071-51a081a10c2c/build]   |       encoder         : Lavc60.3.100 wrapped_avframe\n[0583c866-8694-46fa-9071-51a081a10c2c/build]   | frame=    3 fps=0.7 q=-0.0 Lsize=N/A time=00:00:00.08 bitrate=N/A speed=0.0179x    \n[0583c866-8694-46fa-9071-51a081a10c2c/build]   | video:1kB audio:0kB subtitle:0kB other streams:0kB global headers:0kB muxing overhead: unknown\n[0583c866-8694-46fa-9071-51a081a10c2c/build]   | [Parsed_libvmaf_5 @ 0x863eec0] VMAF score: 14.258492\n[0583c866-8694-46fa-9071-51a081a10c2c/build]   | corrupted double-linked list\n[0583c866-8694-46fa-9071-51a081a10c2c/build]   | FAILED test/test.py::TestMetrics::test_vmaf_feature_options - AssertionError: assert ['integer_adm...motion2', ...] == ['integer_adm...motion2', ...]\n[0583c866-8694-46fa-9071-51a081a10c2c/build]   |   At index 12 diff: 'vmaf' != 'cambi_source'\n[0583c866-8694-46fa-9071-51a081a10c2c/build]   |   Right contains 2 more items, first extra item: 'vmaf'\n[0583c866-8694-46fa-9071-51a081a10c2c/build]   |   Full diff:\n[0583c866-8694-46fa-9071-51a081a10c2c/build]   |     [\n[0583c866-8694-46fa-9071-51a081a10c2c/build]   |      'integer_adm2',\n[0583c866-8694-46fa-9071-51a081a10c2c/build]   |      'integer_adm_scale0',\n[0583c866-8694-46fa-9071-51a081a10c2c/build]   |      'integer_adm_scale1',\n[0583c866-8694-46fa-9071-51a081a10c2c/build]   |      'integer_adm_scale2',\n[0583c866-8694-46fa-9071-51a081a10c2c/build]   |      'integer_adm_scale3',\n[0583c866-8694-46fa-9071-51a081a10c2c/build]   |      'integer_motion2',\n[0583c866-8694-46fa-9071-51a081a10c2c/build]   |      'integer_motion',\n[0583c866-8694-46fa-9071-51a081a10c2c/build]   |      'integer_vif_scale0',\n[0583c866-8694-46fa-9071-51a081a10c2c/build]   |      'integer_vif_scale1',\n[0583c866-8694-46fa-9071-51a081a10c2c/build]   |      'integer_vif_scale2',\n[0583c866-8694-46fa-9071-51a081a10c2c/build]   |      'integer_vif_scale3',\n[0583c866-8694-46fa-9071-51a081a10c2c/build]   |      'cambi',\n[0583c866-8694-46fa-9071-51a081a10c2c/build]   |   -  'cambi_source',\n[0583c866-8694-46fa-9071-51a081a10c2c/build]   |   -  'cambi_full_reference',\n[0583c866-8694-46fa-9071-51a081a10c2c/build]   |      'vmaf',\n[0583c866-8694-46fa-9071-51a081a10c2c/build]   |      'n',\n[0583c866-8694-46fa-9071-51a081a10c2c/build]   |     ]\n[0583c866-8694-46fa-9071-51a081a10c2c/build]   | FAILED test/test.py::TestMetrics::test_global - assert 0.05299999999999727 < 0.02\n[0583c866-8694-46fa-9071-51a081a10c2c/build]   |  +  where 0.05299999999999727 = abs((535.627 - 535.68))\n[0583c866-8694-46fa-9071-51a081a10c2c/build]   | ========================= 5 failed, 3 passed in 10.83s =========================\n[0583c866-8694-46fa-9071-51a081a10c2c/build]   \u274c  Failure - Main Test with pytest\n[0583c866-8694-46fa-9071-51a081a10c2c/build] exitcode '1': failure\n[0583c866-8694-46fa-9071-51a081a10c2c/build] \ud83c\udfc1  Job failed\n",
        "stderr": "Error: Job 'build' failed\n",
        "workflow": "/tmp/ad9c0f7e-1596-11ee-8a50-bb14de238602/slhck-ffmpeg-quality-metrics/.github/workflows/python-package-crawler.yml",
        "build_tool": "pytest",
        "elapsed_time": 471.4645848274231
    }
}